<?xml version="1.0" encoding="UTF-8" standalone="no"?>
<!-- Created with Inkscape (http://www.inkscape.org/) -->

<svg
   version="1.1"
   id="svg1"
   width="745"
   height="517"
   viewBox="0 0 745 517"
   sodipodi:docname="Toulouse_Matabiau_rouge.svg"
   inkscape:export-filename="Toulouse_Matabiau_rouge.png"
   inkscape:export-xdpi="96"
   inkscape:export-ydpi="96"
   inkscape:version="1.3 (0e150ed6c4, 2023-07-21)"
   xmlns:inkscape="http://www.inkscape.org/namespaces/inkscape"
   xmlns:sodipodi="http://sodipodi.sourceforge.net/DTD/sodipodi-0.dtd"
   xmlns="http://www.w3.org/2000/svg"
   xmlns:svg="http://www.w3.org/2000/svg">
  <defs
     id="defs1" />
  <sodipodi:namedview
     id="namedview1"
     pagecolor="#ffffff"
     bordercolor="#000000"
     borderopacity="0.25"
     inkscape:showpageshadow="2"
     inkscape:pageopacity="0.0"
     inkscape:pagecheckerboard="0"
     inkscape:deskcolor="#d1d1d1"
     inkscape:zoom="1.4832215"
     inkscape:cx="372.5"
     inkscape:cy="258.55882"
     inkscape:window-width="1920"
     inkscape:window-height="1011"
     inkscape:window-x="0"
     inkscape:window-y="0"
     inkscape:window-maximized="1"
     inkscape:current-layer="g1" />
  <g
     inkscape:groupmode="layer"
     inkscape:label="Image"
     id="g1">
    <path
       style="fill:#ed1617"
       d="m 380.04024,480.07601 c 0.28173,-0.9625 1.50641,-5.2375 2.72153,-9.5 l 2.20929,-7.75 h 7.27848 c 6.48472,0 7.3502,0.22598 7.93616,2.07217 1.51194,4.76372 -3.01219,13.39866 -8.14326,15.54256 -1.82348,0.7619 -5.38519,1.38527 -7.91492,1.38527 -3.90895,0 -4.5226,-0.26274 -4.08728,-1.75 z m 11.98619,-5.88636 c 3.5947,-3.5947 3.50535,-6.36364 -0.20535,-6.36364 -2.43251,0 -3.00851,0.5567 -4,3.86602 -0.63706,2.12631 -1.15829,4.15131 -1.15829,4.5 0,1.51846 2.94059,0.42066 5.36364,-2.00238 z m 4.63636,7.23877 c 0,-0.21868 2.53416,-4.51778 5.63146,-9.55356 5.30575,-8.62641 5.80978,-9.1384 8.71469,-8.8524 3.41212,0.33593 3.76409,1.22244 5.07079,12.77218 0.67617,5.97654 0.65919,6.03137 -1.86728,6.03137 -1.70582,0 -2.54966,-0.54774 -2.54966,-1.65499 0,-1.53998 -0.12708,-1.53998 -1.82874,0 -1.24915,1.13047 -3.62616,1.65499 -7.5,1.65499 -3.11919,0 -5.67126,-0.17892 -5.67126,-0.39759 z m 14,-8.10241 c 0,-4.26105 -1.01091,-4.4444 -3.28439,-0.59571 -2.23925,3.79074 -2.18084,4.09571 0.78439,4.09571 2.19048,0 2.5,-0.43333 2.5,-3.5 z m 8,8.01349 c 0,-0.34064 1.20522,-4.64553 2.67826,-9.56642 2.64978,-8.85193 2.71245,-8.94707 5.89301,-8.94707 3.38186,0 4.42873,1.30549 4.42873,5.52277 0,4.12486 1.57445,3.51738 2.80463,-1.08212 1.00447,-3.75561 1.57395,-4.44065 3.69153,-4.44065 2.93308,0 2.93449,0.01 0.96492,6.5 -0.8345,2.75 -1.97197,6.6875 -2.52772,8.75 -0.91502,3.39583 -1.33017,3.75 -4.39563,3.75 -3.30245,0 -3.40724,-0.12831 -4.28763,-5.25 l -0.90245,-5.25 -1.52232,5 c -1.27587,4.19058 -1.95155,5.05122 -4.17382,5.31642 -1.45833,0.17403 -2.65151,0.0377 -2.65151,-0.30293 z m 20,-0.81349 c 0,-2.46093 2.41117,-3.7 7.2,-3.7 2.64,0 4.8,-0.45 4.8,-1 0,-0.55 -1.15458,-1 -2.56574,-1 -4.40084,0 -6.43426,-1.72671 -6.43426,-5.46376 0,-5.31985 1.99003,-6.53624 10.6934,-6.53624 h 7.55054 l -1.48774,2.25 c -1.16408,1.7605 -2.60473,2.31576 -6.62197,2.55226 -5.58707,0.32892 -7.17004,2.18815 -1.88423,2.21305 4.17664,0.0197 5.43201,0.86952 6.28095,4.25199 0.46132,1.83804 0.14897,3.57225 -0.94377,5.23999 -1.49985,2.28906 -2.24413,2.49271 -9.11023,2.49271 -5.46827,0 -7.47695,-0.34925 -7.47695,-1.3 z m 28,0.74707 c 0,-0.30411 1.20522,-4.57911 2.67826,-9.5 2.37221,-7.92465 2.94358,-8.94707 5,-8.94707 2.71657,0 2.80723,0.82827 0.81092,7.40893 -2.01362,6.63769 -2.03137,6.59107 2.51082,6.59107 4.28495,0 4.69097,0.50597 2.60795,3.25 -1.01143,1.3324 -2.79354,1.75 -7.46819,1.75 -3.37687,0 -6.13976,-0.24882 -6.13976,-0.55293 z m 22,0 c 0,-0.30411 1.20522,-4.57911 2.67826,-9.5 l 2.67826,-8.94707 h 7.82174 c 4.30196,0 7.82174,0.38026 7.82174,0.84501 0,2.0451 -3.92109,4.15499 -7.72175,4.15499 -2.78359,0 -4.25554,0.49843 -4.67126,1.58179 -0.92539,2.41152 -0.73093,2.94215 0.59301,1.61821 0.66,-0.66 2.76344,-1.2 4.67431,-1.2 h 3.47432 l -2.34863,2.5 c -1.43053,1.52273 -3.45322,2.5 -5.17431,2.5 -1.55413,0 -2.82569,0.45 -2.82569,1 0,0.55 2.25,1 5,1 5.27688,0 5.75091,0.42701 3.60795,3.25 -1.04697,1.37922 -2.84116,1.75 -8.46819,1.75 -3.92687,0 -7.13976,-0.24882 -7.13976,-0.55293 z m 19,0.0292 c 0,-0.33429 0.46583,-1.47822 1.03518,-2.54206 0.82959,-1.5501 2.12056,-1.93426 6.5,-1.93426 3.00565,0 5.46482,-0.45 5.46482,-1 0,-0.55 -1.37958,-1 -3.06574,-1 -4.85597,5e-5 -6.93426,-1.61247 -6.93426,-5.38015 0,-5.14015 2.42042,-6.6198 10.82874,-6.6198 3.94419,0 7.17126,0.38026 7.17126,0.84501 0,2.19326 -3.93232,4.15499 -8.32874,4.15499 -5.79491,0 -6.19829,1.77246 -0.49898,2.1925 3.52562,0.25984 4.31165,0.72824 5.07153,3.0221 0.61785,1.8651 0.48254,3.58625 -0.43237,5.5 -1.26604,2.6482 -1.71286,2.79979 -9.07153,3.07746 -4.25695,0.16064 -7.73991,0.0186 -7.73991,-0.31574 z m 19,-0.0643 c 0,-0.39644 1.1946,-4.70133 2.65467,-9.56643 l 2.65467,-8.84554 h 7.23834 c 7.72507,0 8.45232,0.48027 8.45232,5.58179 0,4.04531 -3.31685,6.41821 -8.97141,6.41821 -4.77053,0 -5.0052,0.13132 -5.80779,3.25 -0.64893,2.52161 -1.43976,3.32092 -3.52859,3.56642 -1.48072,0.17403 -2.69221,-0.008 -2.69221,-0.40436 z m 13.2,-11.41197 c 1.54,0 2.8,-0.45 2.8,-1 0,-0.55 -1.575,-1 -3.5,-1 -1.925,0 -3.5,0.1882 -3.5,0.41821 0,0.23002 -0.29123,1.24252 -0.64718,2.25 -0.52951,1.49873 -0.40223,1.60451 0.7,0.58179 0.74095,-0.6875 2.60718,-1.25 4.14718,-1.25 z m 3.8,11.49204 c 0,-0.27937 2.56439,-4.57622 5.69865,-9.54854 5.30878,-8.42209 5.90498,-9.02016 8.71469,-8.74204 3.33508,0.33012 3.70261,1.2679 5.0036,12.76717 0.67617,5.97654 0.65919,6.03137 -1.86728,6.03137 -1.5997,0 -2.54966,-0.55888 -2.54966,-1.5 0,-0.825 -0.40186,-1.5 -0.89301,-1.5 -0.49116,0 -1.15203,0.675 -1.46862,1.5 -0.42361,1.10391 -2.16824,1.5 -6.60699,1.5 -3.31726,0 -6.03138,-0.22858 -6.03138,-0.50796 z m 14,-7.99204 c 0,-4.26105 -1.01091,-4.4444 -3.28439,-0.59571 -2.23925,3.79074 -2.18084,4.09571 0.78439,4.09571 2.19048,0 2.5,-0.43333 2.5,-3.5 z m 12.31537,7.49302 c -5.74684,-2.31546 -5.66678,-13.20454 0.12667,-17.22771 0.58188,-0.40408 4.1739,-0.74158 7.98227,-0.75 l 6.92432,-0.0153 -2.34863,2.5 c -1.66765,1.77513 -3.39988,2.5 -5.97431,2.5 -4.10621,0 -6.02569,1.43347 -6.02569,4.5 0,2.99972 1.90035,4.5 5.7,4.5 3.62009,0 3.78563,0.22408 2.26482,3.06574 -1.10793,2.07018 -4.82404,2.46857 -8.64945,0.92728 z m 10.68463,0.45405 c 0,-0.30411 1.20522,-4.57911 2.67826,-9.5 l 2.67826,-8.94707 h 7.82174 c 4.30196,0 7.82174,0.38026 7.82174,0.84501 0,2.04258 -3.92087,4.15499 -7.71211,4.15499 -3.30443,0 -4.15837,0.3967 -4.61531,2.14405 -0.42085,1.60934 -0.27536,1.85873 0.58337,1 0.62923,-0.62923 2.70749,-1.14405 4.61836,-1.14405 h 3.47432 l -2.34863,2.5 c -1.43053,1.52273 -3.45322,2.5 -5.17431,2.5 -1.55413,0 -2.82569,0.45 -2.82569,1 0,0.55 2.25,1 5,1 5.27688,0 5.75091,0.42701 3.60795,3.25 -1.04697,1.37922 -2.84116,1.75 -8.46819,1.75 -3.92687,0 -7.13976,-0.24882 -7.13976,-0.55293 z m -94,-13.51281 c 0,-1.70982 1.98343,-4.93426 3.03518,-4.93426 1.36459,0 1.19972,3.3651 -0.23518,4.8 -1.48619,1.48619 -2.8,1.54919 -2.8,0.13426 z m -335,-31.87524 c 0,-2.40863 1.8131,-3.64592 3.24475,-2.21427 0.76065,0.76065 0.69999,1.51691 -0.20958,2.61287 -1.74772,2.10588 -3.03517,1.9368 -3.03517,-0.3986 z m 6,0 c 0,-2.40863 1.8131,-3.64592 3.24475,-2.21427 0.76065,0.76065 0.69999,1.51691 -0.20958,2.61287 -1.74772,2.10588 -3.03517,1.9368 -3.03517,-0.3986 z m 6,0 c 0,-2.40863 1.8131,-3.64592 3.24475,-2.21427 0.76065,0.76065 0.69999,1.51691 -0.20958,2.61287 -1.74772,2.10588 -3.03517,1.9368 -3.03517,-0.3986 z m 15,1.35304 c 0,-0.39644 1.1946,-4.70133 2.65467,-9.56643 2.62896,-8.75998 2.68603,-8.84563 5.89301,-8.84563 3.40691,0 4.45232,1.29676 4.45232,5.52277 0,4.12486 1.57445,3.51738 2.80463,-1.08212 1.00447,-3.75561 1.57395,-4.44065 3.69153,-4.44065 2.93308,0 2.93449,0.01 0.96492,6.5 -0.8345,2.75 -1.97197,6.6875 -2.52772,8.75 -0.91502,3.39583 -1.33017,3.75 -4.39563,3.75 -3.30245,0 -3.40724,-0.12831 -4.28763,-5.25 l -0.90245,-5.25 -1.52232,5 c -1.27587,4.19058 -1.95155,5.05122 -4.17382,5.31642 -1.45833,0.17403 -2.65151,-0.008 -2.65151,-0.40436 z m 24.37842,-0.39572 c -4.35673,-1.75963 -3.99494,-10.07433 0.65493,-15.05204 2.35912,-2.52544 3.51336,-2.9643 7.79643,-2.9643 6.39435,0 8.17022,1.66745 8.17022,7.67143 0,3.81681 -0.53438,5.06295 -3.4,7.92857 -2.72985,2.72985 -4.15885,3.38751 -7.25,3.33661 -2.1175,-0.0349 -4.80471,-0.44898 -5.97158,-0.92027 z m 10.04695,-5.93387 c 2.61351,-2.88791 1.70281,-6.51044 -1.73584,-6.90473 -1.54576,-0.17724 -3.45826,0.21536 -4.25,0.87245 -1.4667,1.21725 -1.98207,6.07393 -0.77286,7.28314 1.31991,1.31991 5.05833,0.62802 6.7587,-1.25086 z m 10.69036,5.28603 c -2.02294,-1.41692 -2.24376,-2.17317 -1.67898,-5.75 1.37849,-8.73003 2.70428,-11.6185 5.33283,-11.6185 2.3077,0 2.40643,0.22213 1.6667,3.75 -0.43247,2.0625 -0.82005,5.1 -0.86129,6.75 -0.0638,2.55333 0.29723,3 2.42501,3 2.18787,0 2.77071,-0.81154 4.66827,-6.5 1.85224,-5.55262 2.54456,-6.54612 4.75,-6.81642 1.41995,-0.17403 2.58173,0.0761 2.58173,0.55583 0,3.04185 -4.61331,14.13878 -6.65605,16.01059 -2.95992,2.71223 -8.81612,3.00843 -12.22822,0.6185 z m 16.88427,0.3315 c 0,-2.46093 2.41117,-3.7 7.2,-3.7 2.64,0 4.8,-0.45 4.8,-1 0,-0.55 -1.15458,-1 -2.56574,-1 -4.40084,0 -6.43426,-1.72671 -6.43426,-5.46376 0,-5.31985 1.99003,-6.53624 10.6934,-6.53624 h 7.55054 l -1.48774,2.25 c -1.16408,1.7605 -2.60473,2.31576 -6.62197,2.55226 -6.19214,0.36454 -6.80415,1.961 -0.91631,2.39024 3.79169,0.27643 4.31066,0.63274 5.13564,3.52602 0.70529,2.47355 0.53378,3.80448 -0.74098,5.75 -1.52997,2.33503 -2.23892,2.53148 -9.13563,2.53148 -5.46827,0 -7.47695,-0.34925 -7.47695,-1.3 z m 27.37745,-0.45 c 0.28173,-0.9625 1.50641,-5.2375 2.72153,-9.5 l 2.20929,-7.75 h 7.84587 c 4.31522,0 7.84586,0.38026 7.84586,0.84501 0,2.04258 -3.92087,4.15499 -7.71211,4.15499 -3.30443,0 -4.15837,0.3967 -4.61531,2.14405 -0.42085,1.60934 -0.27536,1.85873 0.58337,1 0.62923,-0.62923 2.70749,-1.14405 4.61836,-1.14405 h 3.47432 l -2.34863,2.5 c -1.43053,1.52273 -3.45322,2.5 -5.17431,2.5 -1.55413,0 -2.82569,0.45 -2.82569,1 0,0.55 2.25,1 5,1 5.27688,0 5.75091,0.42701 3.60795,3.25 -1.04901,1.38191 -2.84437,1.75 -8.53558,1.75 -6.39242,0 -7.14924,-0.19783 -6.69492,-1.75 z m 18.62255,1.16206 c 0,-0.39644 1.1946,-4.70133 2.65467,-9.56643 2.62896,-8.75998 2.68603,-8.84563 5.89301,-8.84563 3.40691,0 4.45232,1.29676 4.45232,5.52277 0,4.19701 1.73757,3.57651 2.89881,-1.03519 0.95939,-3.81008 1.50524,-4.48758 3.61559,-4.48758 2.91331,0 2.9152,0.013 0.94668,6.5 -0.8345,2.75 -1.97197,6.6875 -2.52772,8.75 -0.91502,3.39583 -1.33017,3.75 -4.39563,3.75 -3.30245,0 -3.40724,-0.12831 -4.28763,-5.25 l -0.90245,-5.25 -1.52232,5 c -1.27587,4.19058 -1.95155,5.05122 -4.17382,5.31642 -1.45833,0.17403 -2.65151,-0.008 -2.65151,-0.40436 z m 26.54326,-0.66206 c -0.21668,-0.6875 -0.67527,-3.5 -1.01909,-6.25 -0.34381,-2.75 -0.87749,-6.4625 -1.18594,-8.25 -0.51014,-2.95636 -0.33277,-3.25 1.96317,-3.25 2.33843,0 2.58554,0.45734 3.36129,6.22093 l 0.83731,6.22093 4,-6.21218 c 3.36004,-5.2183 4.45577,-6.21359 6.84878,-6.22093 l 2.84877,-0.009 -1.92816,3.25 c -8.16235,13.75802 -9.74935,15.75 -12.54793,15.75 -1.53133,0 -2.96151,-0.5625 -3.1782,-1.25 z m 17.83516,0.26634 c -4.35673,-1.75963 -3.99494,-10.07433 0.65493,-15.05204 2.35912,-2.52544 3.51336,-2.9643 7.79643,-2.9643 6.39435,0 8.17022,1.66745 8.17022,7.67143 0,3.81681 -0.53438,5.06295 -3.4,7.92857 -2.72985,2.72985 -4.15885,3.38751 -7.25,3.33661 -2.1175,-0.0349 -4.80471,-0.44898 -5.97158,-0.92027 z m 10.04695,-5.93387 c 2.61351,-2.88791 1.70281,-6.51044 -1.73584,-6.90473 -1.54576,-0.17724 -3.45826,0.21536 -4.25,0.87245 -1.4667,1.21725 -1.98207,6.07393 -0.77286,7.28314 1.31991,1.31991 5.05833,0.62802 6.7587,-1.25086 z m 9.99692,4.66753 c 1.56974,-5.3877 1.61739,-8.51932 0.19019,-12.5 l -1.52376,-4.25 h 3.04926 c 2.234,0 3.19273,0.54862 3.58586,2.05198 l 0.53661,2.05197 2.26563,-2.12845 c 1.41834,-1.33246 3.24138,-2.00635 4.87479,-1.80197 l 2.60918,0.32647 -3.96115,4.5 c -2.17863,2.475 -4.69205,6.6375 -5.58539,9.25 -1.36476,3.99117 -2.02942,4.75 -4.16051,4.75 -2.15777,0 -2.43843,-0.33577 -1.88071,-2.25 z m 15.95613,1.26634 c -4.35673,-1.75963 -3.99494,-10.07433 0.65493,-15.05204 2.35912,-2.52544 3.51336,-2.9643 7.79643,-2.9643 6.39435,0 8.17022,1.66745 8.17022,7.67143 0,3.81681 -0.53438,5.06295 -3.4,7.92857 -2.72985,2.72985 -4.15885,3.38751 -7.25,3.33661 -2.1175,-0.0349 -4.80471,-0.44898 -5.97158,-0.92027 z m 10.04695,-5.93387 c 2.61351,-2.88791 1.70281,-6.51044 -1.73584,-6.90473 -1.54576,-0.17724 -3.45826,0.21536 -4.25,0.87245 -1.4667,1.21725 -1.98207,6.07393 -0.77286,7.28314 1.31991,1.31991 5.05833,0.62802 6.7587,-1.25086 z m 6.92821,5.24276 c 0.29485,-1.00388 1.53028,-5.31273 2.7454,-9.57523 2.1713,-7.61672 2.26499,-7.75 5.44817,-7.75 3.40747,0 4.45285,1.29656 4.45285,5.52277 0,4.12486 1.57445,3.51738 2.80463,-1.08212 1.02111,-3.8178 1.55409,-4.44065 3.79994,-4.44065 2.9557,0 2.96447,-0.14012 -0.76668,12.25 -1.9818,6.581 -2.11635,6.75 -5.37402,6.75 -3.20158,0 -3.37002,-0.19134 -4.02742,-4.57518 -0.75192,-5.01417 -1.7991,-4.82392 -3.16596,0.57518 -0.71313,2.81688 -1.42934,3.56348 -3.66954,3.82523 -2.29393,0.26803 -2.68919,0.004 -2.24737,-1.5 z m 19.64642,1.15109 c 0,-0.33429 0.46583,-1.47822 1.03518,-2.54206 0.82959,-1.5501 2.12056,-1.93426 6.5,-1.93426 3.00565,0 5.46482,-0.45 5.46482,-1 0,-0.55 -1.37958,-1 -3.06574,-1 -4.85597,0 -6.93426,-1.61252 -6.93426,-5.3802 0,-5.14015 2.42042,-6.6198 10.82874,-6.6198 3.94419,0 7.17126,0.38026 7.17126,0.84501 0,2.19326 -3.93232,4.15499 -8.32874,4.15499 -5.79491,0 -6.19829,1.77246 -0.49898,2.1925 3.52562,0.25984 4.31165,0.72824 5.07153,3.0221 0.61785,1.8651 0.48254,3.58625 -0.43237,5.5 -1.26604,2.6482 -1.71286,2.79979 -9.07153,3.07746 -4.25695,0.16064 -7.73991,0.0186 -7.73991,-0.31574 z m 35.68389,-0.22632 c -0.23879,-0.4125 -0.73349,-3.45 -1.09935,-6.75 -0.36586,-3.3 -0.90781,-7.2375 -1.20433,-8.75 -0.47219,-2.40857 -0.22971,-2.75 1.95303,-2.75 2.29939,0 2.5569,0.48115 3.32945,6.22093 l 0.83731,6.22093 4,-6.21218 c 3.36004,-5.2183 4.45577,-6.21359 6.84878,-6.22093 l 2.84877,-0.009 -1.92816,3.25 c -8.07937,13.61815 -9.76557,15.75 -12.45753,15.75 -1.48161,0 -2.88919,-0.3375 -3.12797,-0.75 z m 17.69453,-0.23366 c -4.35673,-1.75963 -3.99494,-10.07433 0.65493,-15.05204 2.34711,-2.51259 3.52242,-2.9643 7.71287,-2.9643 6.20013,0 8.25378,1.97277 8.25378,7.92874 0,3.52418 -0.59469,4.86595 -3.4,7.67126 -2.72985,2.72985 -4.15885,3.38751 -7.25,3.33661 -2.1175,-0.0349 -4.80471,-0.44898 -5.97158,-0.92027 z m 10.04695,-5.93387 c 2.61351,-2.88791 1.70281,-6.51044 -1.73584,-6.90473 -1.54576,-0.17724 -3.45826,0.21536 -4.25,0.87245 -1.4667,1.21725 -1.98207,6.07393 -0.77286,7.28314 1.31991,1.31991 5.05833,0.62802 6.7587,-1.25086 z m 6.57463,6.39385 c 0,-0.33429 0.46583,-1.47822 1.03518,-2.54206 0.82959,-1.5501 2.12056,-1.93426 6.5,-1.93426 3.00565,0 5.46482,-0.45 5.46482,-1 0,-0.55 -1.37958,-1 -3.06574,-1 -4.85597,0 -6.93426,-1.61252 -6.93426,-5.3802 0,-5.14015 2.42042,-6.6198 10.82874,-6.6198 3.94419,0 7.17126,0.38026 7.17126,0.84501 0,2.19326 -3.93232,4.15499 -8.32874,4.15499 -5.79491,0 -6.19829,1.77246 -0.49898,2.1925 3.52562,0.25984 4.31165,0.72824 5.07153,3.0221 0.61785,1.8651 0.48254,3.58625 -0.43237,5.5 -1.26604,2.6482 -1.71286,2.79979 -9.07153,3.07746 -4.25695,0.16064 -7.73991,0.0186 -7.73991,-0.31574 z m 28.35358,-1.15109 c 0.29485,-1.00388 1.53539,-5.33032 2.75675,-9.61432 l 2.22066,-7.78908 7.5845,0.28908 c 7.1034,0.27075 7.60563,0.43827 7.91739,2.6408 0.57856,4.08742 -0.71608,7.08087 -3.34811,7.74147 -3.03276,0.76117 -3.1089,1.80174 -0.38407,5.24909 l 2.1007,2.65773 -2.78049,0.33377 c -2.20615,0.26483 -3.4464,-0.45815 -6.00418,-3.5 l -3.22368,-3.83377 -0.90432,3.5 c -0.72634,2.81122 -1.45208,3.564 -3.68778,3.82523 -2.29393,0.26803 -2.68919,0.004 -2.24737,-1.5 z m 12.84642,-10.32523 c 1.54,0 2.8,-0.45 2.8,-1 0,-0.55 -1.52252,-1 -3.38337,-1 -2.61814,0 -3.51018,0.48493 -3.94405,2.14405 -0.42085,1.60934 -0.27536,1.85873 0.58337,1 0.62923,-0.62923 2.40405,-1.14405 3.94405,-1.14405 z m 7.17745,10.25 c 0.28173,-0.9625 1.50641,-5.2375 2.72153,-9.5 l 2.20929,-7.75 h 7.84587 c 4.31522,0 7.84586,0.38026 7.84586,0.84501 0,2.04258 -3.92087,4.15499 -7.71211,4.15499 -3.30443,0 -4.15837,0.3967 -4.61531,2.14405 -0.42085,1.60934 -0.27536,1.85873 0.58337,1 0.62923,-0.62923 2.70749,-1.14405 4.61836,-1.14405 h 3.47432 l -2.34863,2.5 c -1.43053,1.52273 -3.45322,2.5 -5.17431,2.5 -1.55413,0 -2.82569,0.45 -2.82569,1 0,0.55 2.25,1 5,1 5.27688,0 5.75091,0.42701 3.60795,3.25 -1.04901,1.38191 -2.84437,1.75 -8.53558,1.75 -6.39242,0 -7.14924,-0.19783 -6.69492,-1.75 z m 25.2815,1 c -0.2525,-0.4125 -0.7571,-3.45 -1.12133,-6.75 -0.36423,-3.3 -0.89495,-7.2375 -1.17938,-8.75 -0.45184,-2.4027 -0.20241,-2.75 1.975,-2.75 2.29939,0 2.5569,0.48115 3.32945,6.22093 l 0.83731,6.22093 4,-6.21218 c 3.36881,-5.23192 4.45209,-6.21357 6.86501,-6.22093 2.72624,-0.008 2.79614,0.10023 1.44312,2.24125 -0.78204,1.2375 -3.41232,5.5125 -5.84507,9.5 -3.73948,6.12934 -4.84222,7.25 -7.1341,7.25 -1.49101,0 -2.91752,-0.3375 -3.17001,-0.75 z m 14.7185,-1 c 0.28173,-0.9625 1.50641,-5.2375 2.72153,-9.5 l 2.20929,-7.75 h 7.84587 c 4.31522,0 7.84586,0.38026 7.84586,0.84501 0,2.04258 -3.92087,4.15499 -7.71211,4.15499 -3.30443,0 -4.15837,0.3967 -4.61531,2.14405 -0.42085,1.60934 -0.27536,1.85873 0.58337,1 0.62923,-0.62923 2.70749,-1.14405 4.61836,-1.14405 h 3.47432 l -2.34863,2.5 c -1.43053,1.52273 -3.45322,2.5 -5.17431,2.5 -1.55413,0 -2.82569,0.45 -2.82569,1 0,0.55 2.25,1 5,1 5.27688,0 5.75091,0.42701 3.60795,3.25 -1.04901,1.38191 -2.84437,1.75 -8.53558,1.75 -6.39242,0 -7.14924,-0.19783 -6.69492,-1.75 z m 18.62255,1.18426 c 0,-0.31116 0.46583,-1.43616 1.03518,-2.5 0.81007,-1.51361 2.11489,-1.93426 6,-1.93426 2.73065,0 4.96482,-0.45 4.96482,-1 0,-0.55 -1.15458,-1 -2.56574,-1 -4.40084,0 -6.43426,-1.72671 -6.43426,-5.46376 0,-5.3001 1.99927,-6.53624 10.57143,-6.53624 4.08571,0 7.42857,0.38026 7.42857,0.84501 0,2.19326 -3.93232,4.15499 -8.32874,4.15499 -5.82045,0 -6.18735,1.77448 -0.45334,2.1925 3.79169,0.27643 4.31066,0.63274 5.13564,3.52602 0.70529,2.47355 0.53378,3.80448 -0.74098,5.75 -1.52997,2.33503 -2.23892,2.53148 -9.13563,2.53148 -4.11232,0 -7.47695,-0.25458 -7.47695,-0.56574 z m -48,-22.47848 c 0,-0.39099 0.675,-1.27109 1.5,-1.95578 1.19672,-0.99319 1.80328,-0.99319 3,0 2.26391,1.87888 1.82078,2.66667 -1.5,2.66667 -1.65,0 -3,-0.3199 -3,-0.71089 z M 29.534465,343.80869 c -2.545578,-0.43014 -5.589185,-1.29631 -6.76357,-1.92482 -2.146473,-1.14876 -14.7110272,-24.78827 -13.7081572,-25.79114 0.286836,-0.28684 3.9325702,-0.0142 8.1016332,0.60588 18.963581,2.82048 43.789131,0.72271 80.556889,-6.80708 62.90924,-12.88341 177.60348,-56.70546 280.94153,-107.34135 20.15793,-9.87744 23.07251,-11.03009 28,-11.07338 6.61908,-0.0582 10.83527,1.95561 14.69831,7.02032 2.46568,3.23267 2.80169,4.53139 2.80169,10.82889 0,10.89873 -1.69379,12.61745 -22.31127,22.63961 -103.75527,50.43545 -207.23886,87.4422 -291.68873,104.31076 -35.571023,7.10518 -66.214535,9.96791 -80.628325,7.53231 z m -12.8644,-42.34062 c -7.4805212,-1.31581 -8.1424972,-2.38904 -5.21323,-8.45192 6.078182,-12.58039 28.438047,-30.80716 65.094162,-53.06187 7.36352,-4.47055 13.74364,-8.12827 14.17805,-8.12827 0.4344,0 1.05655,2.5875 1.38255,5.75 0.32599,3.1625 1.01886,8.66702 1.539703,12.23226 0.52084,3.56524 0.62399,6.79754 0.22923,7.1829 -0.394763,0.38536 -7.467743,4.39044 -15.717743,8.90018 -21.915147,11.97961 -33.928247,20.16436 -42.703737,29.09485 -8.38805,8.53621 -7.956433,8.38731 -18.788985,6.48187 z M 510.66279,229.82795 c 0,-3.63688 11.85294,-20.61154 11.95837,-17.12564 0.0438,1.44915 -5.40115,12.69721 -7.22652,14.9283 -1.66406,2.03391 -4.73185,3.45851 -4.73185,2.19734 z m 79.69303,-10.77181 c -1.40924,-3.15157 -3.3305,-8.50684 -4.26948,-11.90059 -1.18019,-4.26561 -2.27929,-6.32006 -3.56034,-6.65506 -1.01921,-0.26653 -2.11569,-1.31482 -2.43662,-2.32954 -1.36509,-4.31625 -4.83301,-11.34494 -5.59753,-11.34494 -0.45598,0 -0.82906,3.31875 -0.82906,7.375 0,8.32009 -0.82737,13.625 -2.125,13.625 -0.48125,0 -0.875,-0.675 -0.875,-1.5 0,-0.825 -0.40512,-1.5 -0.90026,-1.5 -0.96226,0 -2.58457,-6.43163 -3.61752,-14.34165 -0.86313,-6.60967 -1.83547,-5.06843 -1.62948,2.58286 0.20207,7.5055 -1.17671,10.66709 -2.79532,6.40981 -0.58158,-1.52967 -1.06431,-3.53942 -1.07273,-4.46612 -0.008,-0.92669 -0.45153,-2.3599 -0.98469,-3.1849 -0.78387,-1.21296 -0.9723,-1.06944 -0.98469,0.75 -0.0151,2.22192 -0.82131,2.65408 -4.28779,2.29849 -1.52588,-0.15653 -1.68299,0.37782 -1.12925,3.84066 0.74695,4.67117 -0.37362,15.36773 -1.53474,14.65011 -1.4969,-0.92513 -3.38303,-9.76895 -3.47342,-16.2864 -0.0693,-4.99827 -0.49086,-6.78767 -1.79241,-7.60867 -0.93597,-0.5904 -1.91579,-0.85943 -2.17737,-0.59786 -0.26157,0.26158 -1.16815,5.44104 -2.01461,11.50991 -0.84646,6.06887 -2.07203,13.48893 -2.72349,16.48903 -2.15718,9.9343 -2.07086,3.22459 0.1554,-12.07894 1.20574,-8.28838 1.93494,-15.3271 1.62044,-15.64159 -1.00439,-1.0044 -5.84151,1.96395 -10.51383,6.45191 -1.84566,1.77284 -3.88315,3.22335 -4.52775,3.22335 -0.64461,0 -1.96749,0.92905 -2.93974,2.06456 -3.26157,3.80924 -6.05473,1.37487 -4.56982,-3.98281 0.21619,-0.78003 -0.65731,-1.96542 -1.94111,-2.63418 -3.67695,-1.91542 -4.62161,-3.18352 -3.46787,-4.65519 2.11577,-2.6988 2.18933,-5.78234 0.1638,-6.86637 -1.26028,-0.67448 -1.75635,-1.68273 -1.39229,-2.82979 0.3254,-1.02524 -0.33703,-2.92944 -1.55992,-4.48409 -1.42267,-1.80863 -1.95806,-3.57796 -1.61915,-5.35086 0.70812,-3.70431 -4.79648,-9.05082 -7.54878,-7.33198 -1.00263,0.62616 -2.23208,0.88562 -2.73211,0.57658 -0.50004,-0.30904 -1.37927,0.31653 -1.95385,1.39015 -0.96828,1.80924 -6.26756,5.10398 -8.20929,5.10398 -1.55439,0 -0.87033,-2.66833 1.15364,-4.5 1.1,-0.99549 2,-2.58848 2,-3.53998 0,-0.9515 1.15511,-2.48686 2.56692,-3.41191 1.70822,-1.11927 2.26919,-2.07769 1.67692,-2.86501 -0.4895,-0.65071 -0.94947,-2.2994 -1.02215,-3.66378 -0.17822,-3.34567 -2.69483,-4.97908 -6.67595,-4.33303 -1.99167,0.3232 -4.62809,-0.10607 -6.70534,-1.09178 -3.07988,-1.4615 -3.91579,-1.47616 -8.33513,-0.14613 -2.70157,0.81305 -5.06505,1.32517 -5.25218,1.13804 -0.29655,-0.29655 5.16197,-4.086 10.20766,-7.08642 2.72661,-1.62138 2.37124,-4.75232 -0.71075,-6.26204 -3.44997,-1.68997 -3.48572,-3.8606 -0.12142,-7.37217 l 2.62858,-2.74365 -3.35144,-3.06107 c -2.88503,-2.63507 -4.12064,-3.0632 -8.87858,-3.07638 -3.93746,-0.0109 -5.09572,-0.29412 -4.02714,-0.98469 0.825,-0.53316 3.19048,-0.97627 5.25661,-0.98469 2.79612,-0.0114 4.33021,-0.68186 6,-2.62226 1.23387,-1.43382 4.18681,-3.95171 6.56211,-5.59532 4.19546,-2.90308 4.26795,-3.04448 2.53977,-4.9541 -1.53513,-1.6963 -1.57881,-2.10486 -0.31873,-2.980812 1.17158,-0.81442 1.19914,-1.12001 0.13942,-1.54589 -0.90717,-0.36457 -0.59399,-0.9056 1,-1.72755 4.57292,-2.35806 5.76166,-2.50568 7.35411,-0.91323 1.45489,1.45489 1.73572,1.38702 3.27894,-0.79249 0.92827,-1.31101 1.64277,-2.72116 1.58777,-3.13366 -0.055,-0.4125 -0.1675,-1.36875 -0.25,-2.125 -0.0825,-0.75625 -1.3875,-1.63224 -2.9,-1.94663 -1.5125,-0.3144 -4.02429,-2.19272 -5.58175,-4.17403 -2.33465,-2.97001 -2.61241,-3.8667 -1.58225,-5.10797 2.19854,-2.64907 5.22294,-3.70264 10.1303,-3.52895 5.16563,0.18283 5.9882,-0.87898 3.12871,-4.03868 -3.01081,-3.32691 1.40993,-2.22765 4.84146,1.20388 3.36186,3.36186 4.62479,3.29551 9.78866,-0.51427 2.84773,-2.10099 3.07982,-2.56003 1.58444,-3.13386 -1.30791,-0.5019 -1.60918,-1.38644 -1.18854,-3.48963 0.3099,-1.54952 0.12086,-3.09086 -0.4201,-3.42519 -2.06009,-1.27321 0.35549,-2.46967 4.98611,-2.46967 3.88564,0 5.11003,0.43579 6.32153,2.25 1.40599,2.10546 1.47926,1.86456 1.14056,-3.75 -0.19908,-3.3 -0.55354,-7.92255 -0.78768,-10.27234 -0.39021,-3.91595 -0.17723,-4.40084 2.55325,-5.81283 2.47374,-1.27922 3.24724,-1.31784 4.56076,-0.22772 0.86998,0.72203 2.41266,1.17201 3.42816,0.99997 1.24984,-0.21174 1.84638,0.29292 1.84638,1.562 0,1.03114 1.40062,2.91033 3.11249,4.17596 2.6384,1.95066 3.03385,2.78574 2.59623,5.48251 -0.43211,2.66275 -0.18769,3.20609 1.49941,3.33317 1.10862,0.0835 2.85387,0.9104 3.87834,1.83754 1.76407,1.59646 1.91328,1.55259 2.81866,-0.82874 1.97262,-5.18839 11.09487,-9.14199 11.09487,-4.80854 0,1.06754 -0.45734,2.22364 -1.01631,2.5691 -0.55897,0.34546 -0.75288,1.05436 -0.4309,1.57533 0.32197,0.52097 1.0241,0.67608 1.56028,0.34471 0.53619,-0.33138 2.06426,0.11128 3.39572,0.98368 4.31829,2.82946 4.80184,2.18554 4.25321,-5.6638 -0.49837,-7.1304 -0.4811,-7.19639 1.04706,-4 1.55309,3.24852 3.94934,4.66874 2.793,1.65536 -0.92372,-2.40717 2.76574,-9.82337 6.02188,-12.10459 1.58183,-1.10822 4.78856,-2.26143 7.12606,-2.5627 3.59059,-0.46277 4.25,-0.27605 4.25,1.20345 0,2.24275 -2.60799,7.48825 -4.50639,9.06378 -1.27237,1.05597 -1.20393,1.54751 0.52075,3.74008 1.0921,1.38839 1.98564,3.19375 1.98564,4.01192 0,1.20315 0.28433,1.25161 1.48701,0.25348 0.82102,-0.68138 2.56128,-0.96449 3.88558,-0.63211 1.52333,0.38233 2.8499,0.0582 3.63543,-0.88834 1.50623,-1.81489 4.58697,-1.94566 5.66176,-0.24033 0.51783,0.82163 0.96863,0.22191 1.31545,-1.75 0.37063,-2.1073 1.17363,-3.09226 2.69858,-3.31003 1.19402,-0.17052 2.70873,-0.95802 3.36601,-1.75 1.46949,-1.77062 3.9524,-1.89021 3.94402,-0.18997 -0.003,0.6875 -0.61903,2.42451 -1.36808,3.86003 -2.04097,3.9114 -0.44547,5.88997 4.74962,5.88997 4.61596,0 7.16591,1.96907 9.42513,7.27806 1.68208,3.95278 3.85423,4.43059 6.25673,1.37631 1.7415,-2.21397 2.71479,-2.5434 6.98279,-2.36346 2.72758,0.115 4.9594,0.60284 4.9596,1.08409 2e-4,0.48125 1.34545,0.60598 2.98943,0.27719 5.65269,-1.13054 7.7291,1.13594 3.88926,4.24526 -1.70097,1.37736 -1.98376,2.346 -1.42612,4.88493 0.69264,3.15355 0.70686,3.15989 3.37169,1.50479 2.39967,-1.49043 2.32673,-1.28802 -0.70617,1.95944 -3.54996,3.80111 -3.75911,7.37609 -0.37265,6.36983 0.96521,-0.28681 3.10493,-0.79849 4.75493,-1.13708 2.82458,-0.57962 2.88899,-0.52575 1.10162,0.92125 -1.57024,1.27122 -1.67836,1.80199 -0.6255,3.07061 0.7279,0.87707 1.03359,2.73025 0.71396,4.32836 -0.80314,4.01574 0.47589,5.54251 3.99557,4.76946 1.61452,-0.35461 4.03324,-0.21238 5.37492,0.31606 2.37089,0.9338 2.32001,1.00937 -1.81057,2.68954 -2.3375,0.95081 -4.23503,2.22298 -4.21673,2.82705 0.0627,2.071272 3.77359,5.609652 5.27775,5.032462 0.81767,-0.31378 1.78375,-0.0898 2.14685,0.49768 0.36309,0.58749 1.87111,1.1037 3.35115,1.14712 l 2.69098,0.0789 -2.51503,0.92607 c -1.38326,0.50933 -2.95826,1.9363 -3.5,3.17105 -0.81365,1.85451 -1.63721,2.1879 -4.73497,1.91679 -3.55296,-0.31096 -3.75,-0.17461 -3.75,2.59501 0,1.64528 -0.86726,3.70808 -1.98383,4.71855 -1.37285,1.24242 -1.80043,2.52605 -1.38833,4.16798 0.80685,3.21474 -1.22966,5.4847 -4.24226,4.72859 -1.74527,-0.438 -2.38558,-0.18284 -2.38558,0.95068 0,0.85217 0.45,1.82751 1,2.16743 0.55,0.33992 1,1.38914 1,2.33161 0,0.94247 1.49991,2.52133 3.33312,3.50859 3.81348,2.05369 9.02479,6.63523 8.33355,7.32646 -0.25536,0.25536 -3.1672,-0.90014 -6.47077,-2.56777 -5.17107,-2.61035 -6.17449,-2.82961 -7.21449,-1.57649 -0.66442,0.80057 -1.67177,1.16897 -2.23857,0.81867 -2.12401,-1.31271 -6.58967,-1.23055 -7.72896,0.1422 -0.96051,1.15735 0.55526,3.16402 8.15313,10.79358 5.13314,5.15456 11.35799,11.79079 13.83299,14.74718 l 4.5,5.37524 -6.19513,-4.19963 c -6.91273,-4.6861 -7.51795,-4.91848 -6.60355,-2.5356 0.73298,1.91011 0.70197,1.89524 -8.06471,-3.86687 -4.32954,-2.8457 -6.19734,-3.57669 -7.14001,-2.79435 -0.92523,0.76788 -2.20149,0.51488 -4.63662,-0.91912 l -3.35998,-1.97863 -2.15594,2.42681 -2.15593,2.42681 6.28986,4.48835 c 6.2609,4.46769 11.52201,9.80906 11.52201,11.69778 0,1.37198 -4.27988,-1.81766 -12.25,-9.12951 -3.7125,-3.40587 -6.75,-5.72918 -6.75,-5.16292 0,0.56627 0.45,1.30769 1,1.64761 1.5352,0.94881 1.18705,5.17009 -0.57143,6.92857 -0.86428,0.86429 -2.55178,1.57265 -3.75,1.57413 -1.49093,0.002 -2.80984,1.18177 -4.17857,3.7382 -1.1,2.05452 -2.675,3.82334 -3.5,3.93071 -9.17943,1.19462 -9.08159,1.1331 -8.95433,5.63056 0.14938,5.27929 -0.96121,24.04402 -1.69847,28.69783 l -0.55448,3.5 -1.64636,-4.13313 c -0.9055,-2.27322 -3.77997,-6.53604 -6.38771,-9.47293 -4.3194,-4.8646 -4.88183,-5.19933 -6.31991,-3.76125 -1.42346,1.42346 -1.43089,2.10855 -0.0756,6.97293 2.07779,7.45751 2.99544,15.55472 1.8435,16.26666 -0.52325,0.32339 -2.10437,-1.99058 -3.51362,-5.14215 z m 7.38298,-45.84255 c -0.59181,-2.35027 -1.07601,-6.83052 -1.07601,-9.9561 v -5.68289 l -2.76504,2.87571 -2.76504,2.8757 3.51504,10.5 c 3.02949,9.04957 3.56007,10.02763 3.84105,7.0804 0.1793,-1.88079 -0.1582,-5.34256 -0.75,-7.69282 z m -37.97302,-13.24564 c 1.04336,-1.32641 1.89701,-3.47597 1.89701,-4.7768 0,-3.89269 1.41246,-2.69594 3.40486,2.88486 1.4839,4.15647 2.01759,4.84724 2.56222,3.31638 0.47081,-1.32337 0.91878,-1.56007 1.41943,-0.75 1.50025,2.42745 3.61349,1.24824 3.61349,-2.01638 0,-4.25217 1.23332,-2.60239 3.39237,4.53787 2.19675,7.26497 3.09833,6.76823 1.67641,-0.92364 -0.58783,-3.17985 -1.02429,-6.9364 -0.96991,-8.34789 0.077,-1.99833 0.40424,-1.59354 1.47856,1.82889 1.90664,6.07389 2.74251,6.49742 1.9203,0.973 -1.06785,-7.17487 0.9021,-6.59261 3.94624,1.1664 1.50455,3.83485 3.14637,6.71855 3.64849,6.40822 0.54518,-0.33693 0.52463,-1.28981 -0.051,-2.3654 -1.33979,-2.50342 1.04414,-5.50907 4.62772,-5.8346 6.70612,-0.60917 6.33083,-0.18513 6.33083,-7.1533 v -6.48188 l 3.61502,3.44616 c 3.22867,3.07786 3.53856,3.19456 2.89954,1.09196 l -0.71549,-2.35422 3.15178,2.33021 c 2.52467,1.86657 3.31829,2.06078 3.98866,0.9761 0.49551,-0.80176 1.39237,-1.03664 2.19869,-0.57582 0.74899,0.42806 -0.0467,-0.75179 -1.76821,-2.62188 -3.62791,-3.94107 -5.80456,-7.79895 -4.90676,-8.69675 0.3439,-0.3439 1.76291,0.70714 3.15336,2.33565 2.72596,3.19268 2.25874,1.6977 -0.88965,-2.84666 -2.8022,-4.04466 -1.37562,-4.46915 2.77427,-0.8255 4.12947,3.62572 4.98594,3.91185 3.52211,1.17666 -1.03813,-1.93978 -1.0108,-1.93996 3.21482,-0.022 2.34402,1.06395 5.04936,1.94434 6.01186,1.95642 0.9625,0.0121 1.75,0.69696 1.75,1.52196 0,0.825 0.46583,1.5 1.03518,1.5 2.36582,0 -1.46548,-4.23768 -9.05397,-10.0143 -4.38967,-3.34153 -7.98122,-6.25203 -7.98122,-6.46773 0,-0.2157 1.56703,-0.1379 3.48228,0.17291 2.74179,0.44493 3.62692,0.18816 4.16248,-1.20748 0.43439,-1.13199 0.0578,-2.2277 -1.04212,-3.03197 -2.12857,-1.55644 -1.90273,-1.67399 7.64736,-3.9803 8.32222,-2.00978 9.6846,-3.13088 4.5,-3.70303 l -3.25,-0.35866 3,-0.7384 c 1.65,-0.40612 5.66547,-1.55965 8.92326,-2.56339 l 5.92326,-1.825 -4.97896,-1.19443 c -3.66171,-0.87844 -6.68388,-0.91782 -11.42326,-0.14886 -11.84348,1.92158 -12.85005,1.12781 -4.36135,-3.43932 3.06677,-1.65 6.04088,-3.557182 6.60913,-4.238172 1.79945,-2.15649 -2.05565,-2.68721 -7.31132,-1.00651 -2.68442,0.85844 -4.86436,1.26468 -4.84432,0.90274 0.0201,-0.36193 1.70755,-1.95109 3.75,-3.53145 l 3.71356,-2.87339 -3.57084,0.63509 c -1.96397,0.3493 -6.90432,1.72698 -10.97857,3.0615 -4.07424,1.33452 -7.64236,2.16764 -7.92915,1.85139 -0.28679,-0.31626 -0.007,-0.75998 0.6224,-0.98605 1.93719,-0.69613 0.39593,-4.13831 -1.61723,-3.61186 -0.99049,0.25902 -2.12076,-0.0466 -2.51171,-0.67919 -0.82955,-1.34224 2.33967,-5.23201 3.61875,-4.4415 0.47649,0.29449 0.86635,-0.40735 0.86635,-1.55963 0,-2.04799 -0.0839,-2.03808 -3.73213,0.44098 -6.45921,4.38914 -9.18497,3.25403 -6.20633,-2.58457 2.00981,-3.93957 3.76727,-12.87938 2.53192,-12.87938 -0.37311,0 -2.00974,2.8125 -3.63695,6.25 -1.6272,3.4375 -3.5206,6.26189 -4.20753,6.27643 -0.68694,0.0145 -1.77087,0.3535 -2.40874,0.75324 -2.67456,1.67614 -4.33868,-0.42687 -4.46033,-5.63666 l -0.12009,-5.14301 -0.97662,4.5 c -1.56584,7.21496 -2.12014,7.80387 -2.82373,3 l -0.65908,-4.5 -0.1502,4.75 c -0.18651,5.89859 -1.6306,6.1674 -2.68609,0.5 -0.64318,-3.45353 -0.87343,-3.78359 -1.22865,-1.76122 -0.43107,2.45426 -0.4609,2.44283 -2.15059,-0.82468 l -1.71346,-3.31346 -3.29145,3.07468 c -1.81031,1.69107 -3.41778,3.07468 -3.57216,3.07468 -0.15439,0 -0.5828,-2.01451 -0.95202,-4.47669 -0.36923,-2.46218 -1.16621,-4.78255 -1.77107,-5.15637 -0.74422,-0.45996 -0.88465,0.0983 -0.43441,1.72669 0.36594,1.3235 0.90317,3.53137 1.19384,4.90637 0.48499,2.29421 0.42261,2.34619 -0.75782,0.63143 -0.70747,-1.02771 -2.05884,-2.82771 -3.00304,-4 l -1.71673,-2.13143 -0.0333,2.75 c -0.0183,1.5125 -0.46387,2.75 -0.99017,2.75 -0.52629,0 -3.51284,-3.16345 -6.63678,-7.02988 -3.12394,-3.86644 -5.89617,-6.8136 -6.16052,-6.54925 -0.26435,0.26434 1.36868,3.85017 3.62895,7.9685 2.32343,4.23342 3.84917,8.1665 3.51043,9.04925 -0.32951,0.85876 -0.756,1.56138 -0.94773,1.56138 -0.19174,0 -2.91819,-1.8 -6.0588,-4 -3.1406,-2.2 -6.10142,-4 -6.57959,-4 -1.37737,0 0.87524,3.52819 4.24309,6.64581 1.6958,1.56981 3.57874,3.75419 4.1843,4.85419 1.01996,1.85275 0.96012,1.89305 -0.8127,0.54745 -1.05255,-0.7989 -2.99828,-2.3739 -4.32385,-3.5 -2.37746,-2.0197 -2.39964,-2.02034 -1.63655,-0.0474 0.42547,1.1 1.01253,2.9 1.30457,4 0.29203,1.1 0.98011,2.57338 1.52904,3.27417 1.67649,2.14026 -0.14618,2.73608 -7.62372,2.49216 -6.51315,-0.21246 -6.98705,-0.099 -5.22208,1.25 1.06762,0.81602 2.98012,1.48367 4.25,1.48367 1.26988,0 2.30887,0.43107 2.30887,0.95794 0,0.52686 -3.4875,1.08936 -7.75,1.25 l -7.75,0.29206 4.3869,1.449302 c 4.66654,1.54169 4.28697,2.10823 -2.38569,3.56086 -2.85506,0.62154 -2.90649,0.72032 -1.073,2.061 1.05918,0.7745 1.73364,1.58947 1.49879,1.81105 -1.64578,1.55277 -7.94639,4.39544 -8.33796,3.76186 -0.43538,-0.70445 -6.47942,0.0245 -22.58904,2.72429 -5.20538,0.87237 -4.91077,0.93488 5.5,1.16694 6.05,0.13486 14.6,0.18214 19,0.10506 8.62126,-0.15103 10.10965,0.30884 10.65005,3.29052 0.28164,1.55399 -0.52816,2.14883 -4.14885,3.04753 -3.38957,0.84134 -4.05061,1.28865 -2.68105,1.8142 1.3404,0.51436 1.63883,1.28969 1.13641,2.95246 -1.07582,3.56044 -1.8731,3.89271 -5.27199,2.19712 -3.83155,-1.91143 -4.0482,-3.18733 -0.68457,-4.03155 1.375,-0.3451 2.5,-1.02211 2.5,-1.50446 0,-0.74918 -1.92705,-0.12415 -11.8266,3.83591 -0.72964,0.29188 -1.731,1.59431 -2.22525,2.89429 -0.53314,1.40226 -1.71576,2.36362 -2.90762,2.36362 -1.10494,0 -3.47858,1.32726 -5.27475,2.94946 l -3.26578,2.94946 5.54017,-1.2694 c 3.0471,-0.69817 6.07329,-1.0917 6.72487,-0.87451 1.48066,0.49356 24.88221,-4.36645 30.40132,-6.3137 4.83091,-1.70445 4.83364,-1.70474 4.83364,-0.5087 0,0.51294 -1.0125,1.23043 -2.25,1.59443 -3.8635,1.13641 -12.33783,6.58303 -13.73593,8.82835 -1.14021,1.83116 -1.12921,1.98207 0.0753,1.0325 0.77587,-0.61166 2.67175,-1.41366 4.21308,-1.78221 2.48586,-0.5944 2.68545,-0.46878 1.76689,1.11211 -1.804,3.10471 -3.75786,5.28221 -4.73974,5.28221 -1.45948,0 -7.16405,5.90304 -7.8778,8.15188 -1.01347,3.19316 0.22335,3.32887 4.50643,0.49446 4.9657,-3.28615 5.71539,-3.32336 3.65678,-0.18152 -0.88826,1.35565 -1.61501,2.73195 -1.61501,3.05844 0,0.79114 11.40036,-7.97905 16.77045,-12.90134 2.34875,-2.15289 4.54542,-3.63938 4.88149,-3.30332 0.33606,0.33607 1.45186,0.16103 2.47954,-0.38897 1.02769,-0.55 1.86852,-0.79481 1.86852,-0.54402 0,0.25079 -2.2262,4.04536 -4.94712,8.43238 -4.49607,7.24915 -4.7697,8.0228 -3.00121,8.48527 1.35444,0.35419 2.5749,-0.37446 4.01522,-2.3972 1.13811,-1.59833 2.65856,-2.90606 3.37876,-2.90606 0.7202,0 1.86966,-0.675 2.55435,-1.5 2.4607,-2.96497 2.75711,-1.39345 0.87673,4.64825 -1.05246,3.38154 -1.78213,6.27968 -1.62151,6.44031 0.16063,0.16062 1.85642,-2.15377 3.76842,-5.14309 1.912,-2.98933 3.87183,-5.43747 4.35518,-5.44031 0.4852,-0.003 0.62298,4.5858 0.30762,10.24484 -0.46989,8.43197 -0.38579,9.45659 0.47416,5.7768 0.57496,-2.46026 1.89903,-5.55845 2.94239,-6.88486 z m 2.42963,-19.08915 c -0.87924,-1.42264 0.24199,-3.05279 2.09972,-3.05279 0.87615,0 1.37805,0.70256 1.19098,1.66713 -0.38952,2.00847 -2.38616,2.84922 -3.2907,1.38566 z M 548.69914,89.369808 c -1.60506,-1.93398 -0.52925,-3.48546 1.96465,-2.83329 2.24693,0.58759 2.22325,0.54153 1.39201,2.7077 -0.75577,1.9695 -1.79411,2.00835 -3.35666,0.12559 z m 16.96365,-9.60282 c 0,-0.58246 0.45,-0.7809 1,-0.44098 0.55,0.33992 1,0.81648 1,1.05902 0,0.24254 -0.45,0.44098 -1,0.44098 -0.55,0 -1,-0.47656 -1,-1.05902 z M 535.62386,161.9797 c -0.65581,-0.2186 -1.58344,0.21989 -2.06141,0.97443 -1.58069,2.49532 -0.93298,3.21201 1.17707,1.30244 1.34167,-1.21419 1.65468,-2.02009 0.88434,-2.27687 z m 54.27362,-84.538472 c 0.76366,-1.15921 1.05122,-4.61522 0.384,-4.61522 -0.20972,0 -1.62046,1.6246 -3.13496,3.61022 l -2.75366,3.61023 2.38497,-0.74501 c 1.31173,-0.40975 2.71557,-1.24685 3.11965,-1.86022 z m -24.98469,-6.44855 c -1.99388,-2.08884 -2.77234,-1.97024 -1.90492,0.2902 0.32568,0.84872 1.28127,1.54313 2.12354,1.54313 1.29568,0 1.26203,-0.28218 -0.21862,-1.83333 z M 83.413907,208.98183 c -0.91082,-1.54189 -1.48278,-3.67022 -1.27103,-4.72963 0.21176,-1.0594 0.93278,-6.1038 1.60228,-11.20977 0.6695,-5.10596 1.54763,-9.48774 1.95139,-9.73729 1.21581,-0.75141 3.23866,5.31548 2.70431,8.11072 -0.43143,2.25689 0.28147,3.16111 5.328023,6.75783 5.50731,3.92513 5.82903,4.38486 5.88,8.40232 0.0297,2.3375 -0.2896,4.25 -0.70944,4.25 -0.41984,0 -3.10209,-1.575 -5.960553,-3.5 -2.85846,-1.925 -5.43995,-3.5 -5.73665,-3.5 -0.2967,0 -0.54634,1.2375 -0.55476,2.75 -0.0255,4.57741 -1.36296,5.57251 -3.23357,2.40582 z m 357.748883,-2.2646 c -9.78599,-5.6972 -14.45263,-19.37769 -9.39923,-27.55427 2.29062,-3.70629 8.37439,-7.33695 12.29429,-7.33695 6.1933,0 11.45027,3.84319 15.12207,11.05523 3.64581,7.16098 3.9335,10.74127 1.27653,15.88623 -1.26151,2.4428 -3.49764,5.31813 -4.96917,6.38963 -3.16543,2.30492 -11.48817,3.21138 -14.32449,1.56013 z m 64.5,-4.8322 c 0,-0.51754 0.44485,-1.21592 0.98855,-1.55194 0.56686,-0.35034 0.7345,0.0511 0.39301,0.94098 -0.66479,1.73242 -1.38156,2.04939 -1.38156,0.61096 z m 159.84248,-3.80902 c -1.81963,-2.16991 -4.84248,-6.99107 -4.84248,-7.72329 0,-1.64951 4.45086,2.5241 6.10349,5.72329 2.01279,3.89642 1.29025,5.04239 -1.26101,2 z m -189.05093,-11 c -1.42045,-1.5125 -4.20464,-6.00127 -6.18709,-9.97504 -5.64978,-11.32482 -4.63878,-17.56653 3.26407,-20.15167 5.94895,-1.94598 10.4838,0.67956 6.65793,3.85475 -0.81044,0.67261 -1.73169,2.86521 -2.04721,4.87244 -0.31553,2.00724 -1.18203,5.69811 -1.92557,8.20193 -1.73563,5.84467 -1.02718,9.32025 2.64919,12.99662 1.77029,1.77028 2.3949,2.95097 1.56114,2.95097 -0.7644,0 -2.55201,-1.2375 -3.97246,-2.75 z m -383.674683,0.11931 c -2.84643,-1.99372 -5.11687,-7.15993 -5.11687,-11.64302 0,-4.5623 3.68961,-15.13542 6.016543,-17.24126 3.85018,-3.48437 10.12009,0.59495 12.07542,7.85649 0.82969,3.08122 0.69488,5.40742 -0.62566,10.796 -2.66991,10.89481 -6.67055,14.20943 -12.349433,10.23179 z m 6.990373,-8.99852 c 0.74366,-0.89607 1.30653,-3.36785 1.25081,-5.49286 -0.25356,-9.67003 -8.358053,-8.93996 -8.358053,0.75291 0,5.59355 4.118983,8.34058 7.107243,4.73995 z m 528.7054,3.88534 c -2.89356,-3.36871 -3.06217,-4.7354 -0.25123,-2.03643 1.55789,1.49583 2.59113,2.96109 2.2961,3.25613 -0.29504,0.29504 -1.21523,-0.25383 -2.04487,-1.2197 z M 497.6597,178.07601 c 1.30856,-1.7875 2.53541,-3.25 2.72633,-3.25 0.75941,0 -1.72001,3.75054 -3.35979,5.08224 -1.08027,0.87731 -0.83879,0.17886 0.63346,-1.83224 z m -11.82023,0.0829 c 0.48655,-2.5088 2.82332,-2.85328 2.82332,-0.41623 0,1.22833 -0.64569,2.08333 -1.57332,2.08333 -0.93124,0 -1.44138,-0.68037 -1.25,-1.66713 z m -384.63952,-24.38617 -5.34311,-5.05329 1.65297,-3.95307 1.65298,-3.95306 4.2227,4.50636 c 4.63008,4.94111 5.4104,5.25584 7.32152,2.95308 2.29529,-2.76566 1.45835,-6.99413 -2.43381,-12.29632 -3.86503,-5.26522 -3.8975,-6.43403 -0.30455,-10.96153 1.69711,-2.13857 9.69414,11.06704 9.69414,16.00805 0,6.01749 -6.4312,17.80305 -9.71485,17.80305 -0.77268,0 -3.80927,-2.27398 -6.74799,-5.0533 z m 15.7501,-22.6967 c -6.43601,-9.24592 -6.64265,-9.83979 -4.61699,-13.26896 0.96852,-1.63957 2.0809,-2.98104 2.47195,-2.98104 0.39105,0 2.12705,2.475 3.85778,5.5 1.73073,3.025 3.47713,5.5 3.88089,5.5 0.40376,0 2.28323,-2.1375 4.17661,-4.75 l 3.4425,-4.75 0.31528,3.27579 c 0.2374,2.46655 -0.75076,4.98861 -4,10.20919 -2.3734,3.81337 -4.58758,6.95177 -4.92039,6.97421 -0.33281,0.0224 -2.40624,-2.54669 -4.60763,-5.70919 z m 300.74683,-1.52728 c -2.77865,-1.40605 -10.58713,-11.97311 -11.52038,-15.59031 -0.89767,-3.47934 1.81744,-5.84546 9.39239,-8.18513 l 6.5768,-2.03136 2.6733,3.27546 c 1.47032,1.80151 2.50721,3.54422 2.3042,3.8727 -0.20301,0.32848 -2.86629,1.15607 -5.91839,1.8391 -7.00715,1.56814 -8.49889,3.77228 -5.06252,7.48019 2.89923,3.12832 3.49348,3.22629 13.04584,2.15079 l 6.02533,-0.67838 2.21592,3.94269 2.21591,3.94269 -3.74124,0.61841 c -6.18013,1.02156 -15.57952,0.69279 -18.20716,-0.63685 z M 129.58587,111.90293 c -2.2863,-2.2863 -2.92308,-3.82203 -2.92308,-7.04966 0,-5.338792 1.77771,-8.645872 7.46614,-13.889292 3.75632,-3.46245 5.21908,-4.20032 7.82678,-3.94813 4.32669,0.41844 7.20213,5.92051 6.19854,11.86073 -0.79876,4.727782 -6.47594,12.054102 -11.14259,14.379332 -4.09721,2.0415 -4.01663,2.05618 -7.42579,-1.35298 z m 9.03748,-6.05581 c 1.00599,-0.53839 2.3291,-2.41327 2.94024,-4.16639 0.89236,-2.559822 0.81007,-3.647042 -0.41787,-5.521112 -1.95377,-2.98184 -2.53279,-2.93478 -5.79584,0.47111 -2.83324,2.95726 -3.49885,6.983522 -1.48709,8.995282 1.45571,1.45571 2.37398,1.49836 4.76056,0.22111 z m 260.5692,2.01177 c -1.03826,-1.14726 -1.55865,-2.81438 -1.24861,-4 0.41116,-1.57226 0.043,-2.04274 -1.62477,-2.07638 -2.29243,-0.0463 -15.54104,-11.405182 -14.50774,-12.438472 0.33518,-0.33519 6.08331,-1.12441 12.77361,-1.75384 l 12.16418,-1.14442 3.6401,3.64009 c 3.19516,3.19516 3.50483,3.92122 2.53354,5.94011 -1.51751,3.15423 -10.09562,13.800032 -11.1197,13.800032 -0.45672,0 -1.63149,-0.8852 -2.61061,-1.96712 z m 3.47024,-11.032882 2.13619,-3 h -5.0681 c -2.78745,0 -5.06809,0.3085 -5.06809,0.68555 0,0.9588 4.18499,5.31445 5.10622,5.31445 0.41668,0 1.71888,-1.35 2.89378,-3 z m 69,1.58333 c 0,-0.87083 0.7125,-1.58333 1.58333,-1.58333 1.76593,0 1.45839,2.15276 -0.39583,2.77083 -0.65313,0.21771 -1.1875,-0.31666 -1.1875,-1.1875 z m -319.7353,-5.52959 c -1.04079,-1.11715 -2.68296,-4.5393 -3.64926,-7.60477 -1.86232,-5.90793 -1.47705,-7.3823 2.48287,-9.50159 1.51859,-0.81272 2.01486,-0.14712 3.58225,4.8046 2.06233,6.51538 4.30719,7.49259 7.46137,3.24802 1.6692,-2.24623 1.74219,-3.15291 0.719,-8.93212 -1.13413,-6.4058 -1.12733,-6.44198 1.66019,-8.8397 3.60477,-3.1007 4.19105,-2.11833 5.07719,8.50726 0.76906,9.2217 0.32898,10.24958 -6.67861,15.59873 -6.09461,4.65223 -8.32426,5.22133 -10.655,2.71957 z m 222.2809,-7.97996 c -0.31484,-0.50942 -3.3789,-2.8003 -6.80902,-5.09085 -3.43012,-2.29054 -6.23658,-4.42887 -6.23658,-4.75183 0,-1.49428 5.48205,-1.93198 7.39712,-0.59061 1.83312,1.28397 2.45008,1.15812 6.07167,-1.23853 4.69307,-3.10573 4.94599,-4.02804 1.53121,-5.58391 -3.33751,-1.52068 -3.15053,-2.43794 0.65198,-3.19845 2.6505,-0.5301 4.04264,0.03 8.75,3.5202 7.60245,5.63676 11.12991,8.99959 10.50345,10.01322 -0.84839,1.37272 -4.28363,0.97289 -7.01445,-0.81641 -2.40469,-1.57561 -2.77942,-1.54642 -7.10098,0.55315 l -4.56233,2.21655 2.82326,2.94685 2.82325,2.94684 h -4.12807 c -2.27044,0 -4.38567,-0.4168 -4.70051,-0.92622 z m -199.36202,-6.76569 c 0.2447,-2.08173 1.61978,-3.45185 6.06642,-6.04451 3.1625,-1.84393 5.75,-3.78257 5.75,-4.30809 0,-1.33929 -0.55437,-1.22348 -5,1.04451 -4.44498,2.26766 -8.03895,2.56105 -9.8,0.8 -1.75901,-1.75901 -1.46511,-5.19325 0.67756,-7.91721 1.9867,-2.52569 18.71218,-11.62638 19.64778,-10.69078 1.61482,1.61482 -2.26686,5.74439 -8.10624,8.62391 -3.5305,1.74098 -6.4191,3.61961 -6.4191,4.17474 0,1.50768 1.58935,1.23332 5.73882,-0.99066 4.62117,-2.4768 6.48612,-2.51391 8.60619,-0.17126 1.96811,2.17474 2.13237,5.17488 0.40499,7.39704 -1.11632,1.43608 -16.19629,10.77422 -17.39905,10.77422 -0.26609,0 -0.3414,-1.21136 -0.16737,-2.69191 z m 494.1661,-5.06486 c 0.39094,-0.63256 2.12845,-2.15956 3.86112,-3.39334 1.73268,-1.23377 2.83047,-1.72568 2.43952,-1.09312 -0.39094,0.63256 -2.12845,2.15956 -3.86112,3.39334 -1.73268,1.23377 -2.83047,1.72568 -2.43952,1.09312 z m -323.84968,-5.55352 c -4.95,-2.26801 -9.20444,-4.26795 -9.4543,-4.44432 -0.24987,-0.17636 2.94317,-3.71813 7.09563,-7.87059 l 7.54993,-7.54993 8.95869,4.49933 c 11.03659,5.5429 12.31848,6.85638 10.26827,10.52122 -0.81678,1.46002 -2.48252,2.79838 -3.70164,2.97413 -1.21912,0.17575 -2.21658,0.89351 -2.21658,1.59501 0,2.1842 -3.52293,4.58974 -6.57874,4.49212 -1.60669,-0.0513 -6.97126,-1.94896 -11.92126,-4.21697 z m 10.5,-2.66403 c 0,-1.17402 -5.27758,-4.02568 -7.45034,-4.02568 -2.55862,0 -1.75729,1.53381 1.70034,3.25462 3.77988,1.88118 5.75,2.14537 5.75,0.77106 z m 6,-5.00536 c 0,-0.53882 -1.74662,-1.87073 -3.88138,-2.95981 l -3.88139,-1.98013 -1.86861,2.09271 c -1.83119,2.05079 -1.82856,2.08091 0.13138,1.50361 1.1,-0.324 3.125,0.0503 4.5,0.83167 2.94417,1.67318 5,1.88368 5,0.51195 z m -165.5409,7.73369 c -0.29807,-0.77676 -0.41081,-5.37913 -0.25052,-10.22748 l 0.29142,-8.81518 8.5,-3.22601 c 4.675,-1.77431 9.77332,-3.52693 11.32959,-3.89471 l 2.82959,-0.66869 -1.78801,3.02686 c -1.35561,2.29486 -3.3095,3.53317 -8.07959,5.12056 -5.64038,1.87699 -6.28928,2.3699 -6.26934,4.76217 l 0.0222,2.66847 1.72777,-2.11686 c 1.37798,-1.68826 6.87056,-4.38314 8.93355,-4.38314 0.22402,0 -0.38239,1.33685 -1.34757,2.97078 -0.97677,1.65353 -3.44055,3.64526 -5.55654,4.49191 -2.09091,0.83661 -3.80165,1.97476 -3.80165,2.52921 0,1.34177 0.13683,1.31915 6,-0.9919 6.97057,-2.74754 8.25983,-2.66437 6.84467,0.44157 -0.79182,1.73786 -3.43698,3.39512 -9.17755,5.75 -4.4358,1.81964 -8.42531,3.45835 -8.86558,3.64159 -0.44027,0.18323 -1.04437,-0.30238 -1.34244,-1.07915 z m 132.7909,-6.78873 c -1.2375,-0.49546 -2.25,-1.59033 -2.25,-2.43306 0,-1.70864 -0.8533,-1.91171 -2.81243,-0.66931 -1.16584,0.73933 -15.68823,-2.03023 -16.87651,-3.21852 -0.37002,-0.37001 15.14589,-11.58205 19.41837,-14.03201 1.82045,-1.04389 9.15722,1.44157 9.71232,3.29023 0.66431,2.21233 -2.71271,17.37662 -3.94175,17.70021 -0.55,0.14481 -2.0125,-0.14209 -3.25,-0.63754 z m -0.91166,-9.66277 c 0.33001,-2.03362 0.43018,-3.86733 0.22259,-4.07491 -0.20758,-0.20758 -2.27979,0.88151 -4.60491,2.4202 l -4.22749,2.79762 2.88573,1.23219 c 4.42041,1.88747 5.07653,1.61523 5.72408,-2.3751 z m -97.33912,5.06412 c -0.003,-3.03169 3.46904,-18.06715 4.38571,-18.99361 0.61329,-0.61984 2.99275,-1.40709 5.2877,-1.74945 4.12011,-0.61463 4.18785,-0.57527 5.38132,3.12698 0.66477,2.0622 1.38677,4.06368 1.60443,4.44775 0.21766,0.38406 2.29607,-1.41594 4.61868,-4 2.32262,-2.58407 4.67294,-5.02891 5.22294,-5.43299 1.31747,-0.96792 9.50585,-0.98115 9.47968,-0.0153 -0.0112,0.4125 -1.55125,4.8 -3.42238,9.75 -3.34185,8.84075 -3.46482,9.00546 -6.94947,9.30857 l -3.54742,0.30856 1.43312,-4.7619 c 0.78822,-2.61905 1.28818,-4.90685 1.11103,-5.084 -0.17715,-0.17715 -2.24037,2.16435 -4.58494,5.20334 -4.76741,6.17945 -6.60534,6.81232 -8.06019,2.77543 -2.52332,-7.00168 -2.63103,-7.02933 -3.89542,-1 -0.66319,3.1625 -1.7364,5.75615 -2.38491,5.76366 -0.6485,0.007 -2.1916,0.28499 -3.4291,0.61663 -1.2375,0.33164 -2.25035,0.21299 -2.25078,-0.26366 z m 64.7623,-3.19596 c -1.55309,-0.61531 -1.36648,-1.30628 1.75,-6.47979 1.91867,-3.18507 3.48848,-6.2185 3.48848,-6.74096 0,-0.52246 -1.35,-0.94992 -3,-0.94992 -3.65883,0 -3.83405,-1.22349 -0.48909,-3.41519 2.32693,-1.52466 3.15122,-1.52578 11.25,-0.0152 10.96485,2.04515 12.38619,2.74254 9.14899,4.48904 -1.32544,0.7151 -3.7599,1.22385 -5.4099,1.13056 -2.65524,-0.15012 -3.48915,0.57624 -7.25644,6.32059 -4.19793,6.401 -5.56057,7.2145 -9.48204,5.66088 z m -9.51152,-0.98403 c -2.17413,-0.20962 -3.25,-0.84025 -3.25,-1.90499 0,-1.4324 -0.18294,-1.42607 -1.82874,0.0634 -1.39019,1.25811 -3.80461,1.65499 -10.06809,1.65499 h -8.23936 l 1.96419,-2.75 c 1.08031,-1.5125 4.77116,-5.8097 8.20189,-9.54933 6.14389,-6.69707 6.30698,-6.79482 10.84475,-6.5 l 4.60707,0.29933 0.79539,5.5 c 0.43747,3.025 0.66658,7.3 0.50915,9.5 -0.27637,3.86187 -0.39848,3.98918 -3.53625,3.68664 z m -3.32029,-7.43664 c -0.17042,-5.45558 -1.25624,-5.84383 -4.73617,-1.69347 l -3.30647,3.94347 h 4.05647 c 3.56086,0 4.04787,-0.2749 3.98617,-2.25 z m 192.93886,6.74015 c -3.6443,-1.98011 -4.48925,-4.49015 -1.5115,-4.49015 2.0834,0 6.64293,3.6477 6.64293,5.31445 0,1.09167 -2.27895,0.72558 -5.13143,-0.8243 z m 24.13143,-10.99015 c -1.35129,-1.62821 -1.02807,-1.83174 1.41821,-0.89301 0.86999,0.33384 1.58179,1.00884 1.58179,1.5 0,1.38323 -1.62035,1.05539 -3,-0.60699 z m 134,-1.24552 c -0.825,-0.2665 -2.04506,-1.16995 -2.71125,-2.00765 -2.41956,-3.04251 3.28628,-8.67434 6.27517,-6.19378 3.12866,2.59656 0.16906,9.4073 -3.56392,8.20143 z"
       id="path8" />
  </g>
</svg>
