<?xml version="1.0" encoding="UTF-8" standalone="no"?>
<!-- Created with Inkscape (http://www.inkscape.org/) -->

<svg
   version="1.1"
   id="svg1"
   width="745"
   height="517"
   viewBox="0 0 745 517"
   sodipodi:docname="Toulouse_Matabiau_explo.svg"
   inkscape:version="1.3 (0e150ed6c4, 2023-07-21)"
   inkscape:export-filename="Toulouse_Matabiau_explo.png"
   inkscape:export-xdpi="96"
   inkscape:export-ydpi="96"
   xmlns:inkscape="http://www.inkscape.org/namespaces/inkscape"
   xmlns:sodipodi="http://sodipodi.sourceforge.net/DTD/sodipodi-0.dtd"
   xmlns="http://www.w3.org/2000/svg"
   xmlns:svg="http://www.w3.org/2000/svg">
  <defs
     id="defs1" />
  <sodipodi:namedview
     id="namedview1"
     pagecolor="#ffffff"
     bordercolor="#000000"
     borderopacity="0.25"
     inkscape:showpageshadow="2"
     inkscape:pageopacity="0.0"
     inkscape:pagecheckerboard="0"
     inkscape:deskcolor="#d1d1d1"
     inkscape:zoom="1.5557047"
     inkscape:cx="372.5"
     inkscape:cy="171.305"
     inkscape:window-width="1920"
     inkscape:window-height="1011"
     inkscape:window-x="0"
     inkscape:window-y="0"
     inkscape:window-maximized="1"
     inkscape:current-layer="g1" />
  <g
     inkscape:groupmode="layer"
     inkscape:label="Image"
     id="g1">
    <path
       style="fill:#fcd56b"
       d="m 624.20014,180.98111 c -1.07883,-2.8875 -2.58885,-7.5 -3.35561,-10.25 -1.37846,-4.94395 -1.36288,-5.03224 1.38966,-7.8757 l 2.78376,-2.87571 0.0351,4.87571 c 0.0193,2.68163 0.67851,7.8007 1.46487,11.3757 0.78636,3.575 1.44555,7.2875 1.46487,8.25 0.0691,3.44044 -1.8546,1.66053 -3.78268,-3.5 z m 32.42082,4.41667 c -0.28327,-0.45834 0.12038,-0.83334 0.89699,-0.83334 0.77661,0 1.18026,0.375 0.89699,0.83334 -0.28326,0.45833 -0.68691,0.83333 -0.89699,0.83333 -0.21008,0 -0.61373,-0.375 -0.89699,-0.83333 z m -2.05022,-3.08126 c -0.32198,-0.52097 -0.15917,-1.21065 0.3618,-1.53262 0.52097,-0.32198 1.21065,-0.15917 1.53262,0.3618 0.32198,0.52097 0.15917,1.21065 -0.3618,1.53262 -0.52097,0.32198 -1.21065,0.15917 -1.53262,-0.3618 z m -71.23749,-10.83541 c 1.09501,-7.19252 1.93901,-18.25 1.39299,-18.25 -0.30258,0 -2.38572,2.58749 -4.62921,5.74998 -4.26401,6.01065 -5.11376,5.43407 -2.57908,-1.74998 1.96895,-5.5806 1.89236,-6.66506 -0.32874,-4.65499 -1.00581,0.91025 -2.15986,1.65499 -2.56456,1.65499 -0.4047,0 -1.85302,1.32772 -3.21849,2.95049 -2.38885,2.83898 -5.38821,3.21853 -5.38821,0.68185 0,-0.63453 1.99795,-4.13194 4.43989,-7.77202 l 4.4399,-6.61833 -2.88316,0.22681 c -1.84749,0.14533 -4.82232,1.98774 -8.28154,5.129 -8.0324,7.29411 -15.27345,12.27889 -14.29976,9.84403 0.4271,-1.068 1.03192,-2.57053 1.34404,-3.33894 0.31711,-0.78065 -1.15137,-0.22911 -3.32806,1.25 -4.68694,3.18486 -5.43131,3.26675 -5.43131,0.59754 0,-2.14918 5.33702,-8.19437 8.12555,-9.20375 0.89406,-0.32362 2.64905,-2.02576 3.89998,-3.78253 l 2.27441,-3.19412 -2.39997,0.73737 c -1.31998,0.40556 -2.92241,1.15415 -3.56094,1.66355 -0.6999,0.55835 -1.38554,0.56282 -1.72642,0.0113 -0.81338,-1.31608 2.21946,-3.77152 9.51271,-7.70165 6.93418,-3.73664 6.8773,-4.21849 -0.24287,-2.05743 -6.99623,2.12344 -24.16699,5.54017 -30.58799,6.08655 -3.13685,0.26693 -6.50853,0.74087 -7.49262,1.05321 -2.72286,0.86421 -1.31028,-1.70986 2.22963,-4.06289 1.65484,-1.1 3.70961,-1.85976 4.56616,-1.68837 0.90273,0.18064 1.78897,-0.57398 2.10833,-1.7952 0.30302,-1.15877 2.27522,-2.9865 4.38266,-4.06164 4.43275,-2.26142 5.00258,-2.36344 4.66138,-0.83456 -0.21348,0.95659 4.576,4.58803 6.33948,4.80668 1.19371,0.14801 2.70441,-4.64236 1.88311,-5.97125 -1.23446,-1.99745 -0.23381,-2.9557 3.08643,-2.9557 2.24451,0 2.94098,-0.45966 2.94098,-1.94098 0,-1.06754 -0.55398,-2.28337 -1.23107,-2.70183 -0.67709,-0.41847 -9.43075,-0.79868 -19.45258,-0.84493 -16.81794,-0.0776 -23.02918,-0.75218 -17.18435,-1.86631 3.26907,-0.62314 21.68127,-2.8152 25.45901,-3.03101 3.89527,-0.22252 9.81102,-3.86153 7.15899,-4.40378 -2.96435,-0.6061 -1.94759,-2.07168 2.32542,-3.3519 l 4.07542,-1.22103 -3.82542,-1.56911 -3.82542,-1.56912 7.5,-0.50112 7.5,-0.50112 -3.75,-1.697849 c -2.0625,-0.93382 -3.75,-2.00832 -3.75,-2.38777 0,-0.37946 2.62013,-0.452332 5.82251,-0.16195 7.62064,0.69101 9.48955,-0.281147 7.7003,-4.005504 -0.72523,-1.509577 -1.63775,-3.813539 -2.02784,-5.119915 -0.79361,-2.657795 0.11832,-2.402678 4.50503,1.260307 1.375,1.14815 0.8657,0.293705 -1.13177,-1.898766 -3.85133,-4.227307 -6.44756,-8.486312 -5.17313,-8.486312 0.421,0 3.36101,1.602066 6.53335,3.560147 3.17234,1.95808 6.21198,3.285683 6.75476,2.950229 0.57395,-0.354721 -0.90898,-4.4594 -3.5442,-9.810147 l -4.53107,-9.200229 6.64496,7.25 c 3.65472,3.9875 7.02054,7.25 7.4796,7.25 0.45906,0 0.99428,-1.2375 1.18937,-2.75 l 0.35472,-2.75 1.81211,3.572157 c 2.93003,5.775885 4.88578,6.407996 8.72632,2.820399 l 3.25266,-3.038436 1.47087,2.807271 c 1.36443,2.604104 1.52376,2.663662 2.20158,0.82294 0.64141,-1.741826 0.81602,-1.617701 1.42881,1.015669 1.35547,5.824912 1.94608,5.941299 2.53731,0.5 l 0.5976,-5.5 0.47833,4.5 c 0.39698,3.734767 0.59005,4.07487 1.13533,2 0.36135,-1.375 1.01168,-3.85 1.44519,-5.5 0.73688,-2.804729 0.80941,-2.696007 1.11428,1.670327 0.39111,5.601539 1.78514,7.041255 5.78263,5.972161 3.52349,-0.942326 3.81626,-3.146752 0.62897,-4.735789 l -2.31142,-1.152367 2.62402,-2.877166 2.62402,-2.877166 -0.38941,3.25 c -0.53347,4.452338 0.78422,4.074564 3.48803,-1 l 2.26447,-4.25 0.30815,3.101647 c 0.16948,1.705906 -0.61516,5.530906 -1.74364,8.5 -1.12849,2.969094 -2.05202,5.735853 -2.0523,6.148353 -10e-4,1.582331 3.75596,0.643008 6.9995,-1.75 4.072,-3.004229 4,-2.994664 4,-0.531385 0,1.366192 -0.47372,1.786831 -1.54804,1.374575 -0.89759,-0.344435 -2.12339,0.19279 -2.91732,1.27855 -1.77472,2.427069 -0.0512,4.724721 2.97449,3.965324 2.42936,-0.609731 3.05096,1.838326 1.10456,4.350166 -0.9153,1.181199 -0.75741,1.292549 0.88631,0.62507 3.64436,-1.47992 13.93814,-4.649932 18,-5.543183 l 4,-0.879648 -4,3.535381 c -2.27926,2.01451 -3.13963,3.227539 -2,2.81979 4.00971,-1.43465 10.5,-1.79626 10.5,-0.58501 0,0.64335 -2.92034,3.031529 -6.48965,5.307069 -3.5693,2.27554 -6.32339,4.30359 -6.12019,4.5068 0.2032,0.2032 4.57155,-0.30695 9.70743,-1.13367 5.13588,-0.82671 9.57747,-1.13753 9.87019,-0.69071 0.29272,0.44682 2.33222,1.2808 4.53222,1.85329 3.93872,1.02494 3.95111,1.04247 0.80902,1.14424 -1.75504,0.0568 -3.45039,0.52307 -3.76744,1.03607 -0.31705,0.513 -3.15611,1.51366 -6.30902,2.2237 -5.08441,1.14501 -5.3651,1.32938 -2.48256,1.63063 1.7875,0.18682 3.25,0.71107 3.25,1.16502 0,1.05824 -6.71614,2.3414 -8.02407,1.53305 -0.54453,-0.33654 -1.26002,0.0916 -1.58998,0.9515 -0.32996,0.85986 -1.56428,1.57027 -2.74294,1.57869 -2.89646,0.0207 -5.21257,1.51465 -3.74977,2.41871 0.60872,0.37621 1.10676,1.53029 1.10676,2.56463 0,1.43431 -0.85272,1.95427 -3.59314,2.19098 l -3.59315,0.31037 4.16942,3 c 7.17966,5.16595 9.9274,7.56561 12.00666,10.48567 1.91587,2.69058 1.92253,2.80416 0.13707,2.33725 -1.03217,-0.26991 -1.82046,-1.24049 -1.75176,-2.15684 0.0898,-1.198 -0.71793,-1.68649 -2.8751,-1.73873 -1.65,-0.0399 -4.04656,-0.63652 -5.32569,-1.32569 -2.19843,-1.18448 -2.26269,-1.13532 -1.17431,0.89834 1.02936,1.92337 0.95789,2.04711 -0.67431,1.16752 -1.00413,-0.54113 -2.9036,-2.13633 -4.22105,-3.54488 -3.36477,-3.59745 -4.63699,-2.18715 -1.60863,1.78324 3.43953,4.50945 3.14421,5.58168 -0.55991,2.0329 -4.02614,-3.85728 -2.96055,-0.63948 1.68966,5.10234 3.09458,3.82101 3.17109,4.10466 1.40472,5.20777 -1.51361,0.94527 -2.34043,0.79514 -4.35703,-0.79111 -2.71717,-2.13733 -4.80309,-2.68742 -2.87345,-0.75778 0.66,0.66 1.2,1.64828 1.2,2.19617 0,0.54789 -1.48392,-0.44211 -3.29761,-2.2 -1.81368,-1.75789 -3.65238,-3.19617 -4.08599,-3.19617 -0.43361,0 -0.68678,1.6875 -0.56261,3.75 0.46817,7.77637 0.46192,7.78566 -4.98013,7.40841 -4.60689,-0.31935 -5.02824,-0.14693 -6.47428,2.64941 -1.36053,2.63098 -1.36933,3.13822 -0.073,4.21404 1.63724,1.35879 1.95598,2.97814 0.58618,2.97814 -0.48812,0 -2.13062,-2.925 -3.65002,-6.5 -1.5194,-3.575 -3.07897,-6.5 -3.46573,-6.5 -0.38675,0 -0.48699,2.25 -0.22275,5 0.58198,6.05675 -0.29457,6.49428 -1.8012,0.89906 -1.81173,-6.72824 -2.19772,-3.70583 -0.6044,4.73252 0.81533,4.31801 1.31733,8.016 1.11558,8.21776 -0.50355,0.50355 -3.48541,-6.71918 -4.17803,-10.12015 -0.7336,-3.60213 -2.30597,-4.55348 -2.30597,-1.3952 0,2.59883 -2.53331,4.37844 -3.35926,2.35983 -0.34998,-0.85534 -0.78038,-0.77318 -1.51802,0.28981 -0.83378,1.20154 -1.3236,0.77984 -2.57613,-2.21788 -0.85066,-2.03583 -1.54663,-4.16597 -1.54663,-4.73363 0,-0.56767 -0.45,-1.03212 -1,-1.03212 -0.55,0 -1,0.72623 -1,1.61385 0,0.88761 -0.88257,3.25011 -1.96127,5.25 -1.0787,1.99988 -2.44604,5.54865 -3.03854,7.88615 -1.33163,5.25346 -2.45953,5.58817 -1.68489,0.5 z m 17.09954,-27.81139 c 0.90014,-0.6582 1.59178,-2.62395 1.60047,-4.54885 0.0296,-6.54217 1.44452,-6.26016 5.47415,1.09102 3.94854,7.20324 6.26671,9.16802 5.0371,4.26922 -0.37964,-1.5125 -0.84609,-4.66204 -1.03654,-6.99899 -0.30748,-3.77282 -0.0805,-4.31568 2.02501,-4.84414 1.30421,-0.32734 2.84688,-0.30123 3.42813,0.058 0.58126,0.35924 1.05684,-0.057 1.05684,-0.92491 0,-1.19925 0.66014,-1.43509 2.75,-0.98246 2.73456,0.59226 2.73035,0.57848 -0.75,-2.45405 -1.925,-1.6773 -3.8375,-3.06175 -4.25,-3.07655 -0.4125,-0.0148 -0.75,-0.5894 -0.75,-1.2769 0,-0.6875 1.2375,-1.34445 2.75,-1.4599 1.5125,-0.11544 4.775,-0.51248 7.25,-0.88231 l 4.5,-0.67241 -5.49124,-1.40893 c -7.39523,-1.89746 -8.13616,-2.96308 -2.87661,-4.1372 l 4.36785,-0.97507 -5.19098,-0.10709 c -2.85504,-0.0589 -5.4691,-0.55709 -5.80902,-1.10709 -0.33992,-0.55 -0.13034,-1 0.46573,-1 0.59608,0 1.49927,-1.09286 2.00711,-2.42857 0.51062,-1.34303 1.95226,-2.61966 3.22525,-2.85608 1.26605,-0.23514 0.50191,-0.37978 -1.69809,-0.32143 -3.2933,0.0873 -4.05111,-0.25067 -4.28931,-1.91316 -0.15912,-1.11059 0.72547,-3.10849 1.96577,-4.43979 1.8705,-2.007749 1.9435,-2.300979 0.42806,-1.719449 -1.55154,0.59538 -1.73231,0.32377 -1.19892,-1.80141 1.04623,-4.168513 -3.34015,-2.789015 -7.0132,2.20562 -3.29099,4.475119 -4.34294,4.559249 -4.47135,0.3576 l -0.0789,-2.58333 -1.00439,2.75 c -0.70796,1.938379 -1.70021,2.749999 -3.36204,2.749999 -1.2967,0 -2.64707,-0.4683 -3.00082,-1.04068 -0.35375,-0.57237 -1.51788,-0.76305 -2.58697,-0.42374 -2.00137,0.63521 -5.78658,-2.761799 -5.85462,-5.254194 -0.0192,-0.70341 -0.71153,-0.958341 -1.63757,-0.602988 -1.2714,0.487881 -1.46828,1.467023 -0.94881,4.718613 0.49513,3.099299 0.37327,3.821069 -0.49818,2.950519 -0.87095,-0.87006 -1.61935,-0.75374 -3.05403,0.47468 -1.17628,1.00716 -3.32814,1.53412 -5.64753,1.383 -3.72431,-0.24265 -3.73191,-0.23532 -1.24715,1.20301 2.5874,1.49775 2.27673,1.86026 -2.5,2.91723 -1.49578,0.33098 -1.32158,0.47179 0.69098,0.55855 3.72312,0.16049 4.37236,1.75779 1.0531,2.59088 l -2.7421,0.68822 2.49798,1.3369 2.49802,1.3369 -2.98911,0.75022 c -3.41888,0.85808 -5.33123,2.44593 -4.81412,3.99724 0.19552,0.58657 -2.46832,2.34346 -5.91965,3.9042 -4.53381,2.05024 -5.71107,2.94257 -4.24245,3.21564 1.11798,0.20787 4.50573,-0.71574 7.52832,-2.05248 l 5.49563,-2.43043 1.19389,2.52982 c 0.65663,1.3914 0.95483,2.91661 0.66266,3.38936 -0.29217,0.47274 0.17033,0.85953 1.02779,0.85953 2.11782,0 1.96021,0.94405 -0.61529,3.68555 -3.11455,3.31528 -0.62598,2.86446 3.02757,-0.54847 l 3.06477,-2.86292 3.46781,3.86292 c 1.9073,2.12461 3.93788,3.86292 4.5124,3.86292 0.57452,0 1.42355,1.4625 1.88674,3.25 1.04683,4.03988 4.30857,4.50543 5.25467,0.75 0.46837,-1.85914 0.8433,-0.83377 1.46262,4 0.77801,6.07226 0.88198,6.2729 1.58011,3.04886 0.41101,-1.89813 1.46062,-3.97274 2.33246,-4.61025 z m -10.41484,-5.43861 c 0,-0.55 0.675,-1 1.5,-1 0.825,0 1.5,0.45 1.5,1 0,0.55 -0.675,1 -1.5,1 -0.825,0 -1.5,-0.45 -1.5,-1 z m -9.64948,-46.47106 c 0.64937,-1.692236 -2.05562,-4.829231 -3.43114,-3.979113 -1.35189,0.835512 -1.11936,4.202812 0.33062,4.787893 2.07793,0.838463 2.51185,0.725274 3.10052,-0.80878 z m 15.64948,-8.969922 c 0,-0.242541 -0.45,-0.719098 -1,-1.059017 -0.55,-0.339919 -1,-0.141476 -1,0.440983 0,0.582459 0.45,1.059017 1,1.059017 0.55,0 1,-0.198442 1,-0.440983 z m -35.10492,84.190982 c 0.45685,-1.2375 1.62104,-2.40584 2.5871,-2.5963 1.63429,-0.32222 1.62644,-0.16789 -0.11285,2.21857 -2.31841,3.18105 -3.58027,3.37369 -2.47425,0.37773 z M 497.51795,147.713 c 1.1,-0.89564 2.9,-2.07029 4,-2.61033 l 2,-0.98189 -2,1.62844 c -1.1,0.89564 -2.9,2.07029 -4,2.61033 l -2,0.98189 z m 6.5,-3.91152 c 0,-0.275 0.9,-0.98167 2,-1.57037 1.1,-0.5887 2,-0.84537 2,-0.57037 0,0.275 -0.9,0.98167 -2,1.57037 -1.1,0.5887 -2,0.84537 -2,0.57037 z m -13.25,-25.23265 c 0.6875,-0.27741 1.8125,-0.27741 2.5,0 0.6875,0.27741 0.125,0.50439 -1.25,0.50439 -1.375,0 -1.9375,-0.22698 -1.25,-0.50439 z m 4.25,-0.73268 c 0,-0.21724 1.76215,-0.56302 3.91588,-0.76841 2.15374,-0.20539 3.70218,-0.0277 3.44099,0.39497 -0.47525,0.76897 -7.35687,1.11828 -7.35687,0.37344 z m 208.26903,-9.29803 c 0.97297,-0.25354 2.32297,-0.23687 3,0.037 0.67703,0.27393 -0.11903,0.48137 -1.76903,0.46099 -1.65,-0.0204 -2.20394,-0.2445 -1.23097,-0.49804 z M 686.01795,83.382926 c 0,-0.505204 0.9,-1.153908 2,-1.441564 1.1,-0.287656 2,-0.355973 2,-0.151815 0,0.204158 -0.9,0.852862 -2,1.441564 -1.10492,0.591337 -2,0.65928 -2,0.151815 z m -99,-7.210832 c 0,-1.132459 0.43035,-1.793048 0.95633,-1.467975 0.52598,0.325073 0.70283,1.251631 0.39301,2.059017 -0.79323,2.067113 -1.34934,1.823523 -1.34934,-0.591042 z m 4.86078,-2.907714 c -1.29843,-1.081702 -1.86802,-1.981702 -1.26577,-2 0.60226,-0.0183 1.9095,0.866731 2.90499,1.966731 2.31592,2.559066 1.41461,2.577359 -1.63922,0.03327 z m 105.13922,1.602919 c 0,-0.275 1.35,-1.461284 3,-2.636188 1.65,-1.174904 3,-1.911188 3,-1.636188 0,0.275 -1.35,1.461284 -3,2.636188 -1.65,1.174904 -3,1.911188 -3,1.636188 z"
       id="path8" />
    <path
       style="fill:#f28b0c"
       d="m 618.54187,218.30647 c -0.36228,-1.14145 -1.15337,-2.07536 -1.75797,-2.07536 -0.60461,0 -0.80319,-0.2961 -0.44129,-0.65799 0.36189,-0.3619 0.14777,-1.27277 -0.47584,-2.02417 -0.6236,-0.75139 -0.8486,-1.65139 -0.5,-2 0.34861,-0.3486 0.24335,-1.12523 -0.23391,-1.72583 -0.47726,-0.60061 -0.53035,-1.99201 -0.11798,-3.09201 0.58332,-1.55603 1.24704,-0.37882 2.98995,5.30313 1.23211,4.01672 2.00519,7.53813 1.71796,7.82536 -0.28722,0.28723 -0.81864,-0.41168 -1.18092,-1.55313 z m 6.33818,-26.58518 c -3.10084,-6.0554 -6.20957,-12.9179 -6.90829,-15.25 -1.41211,-4.71321 -2.95381,-5.60509 -2.95381,-1.7088 0,1.39227 -0.675,2.79041 -1.5,3.10699 -1.02452,0.39315 -1.51525,2.04737 -1.5481,5.21862 l -0.0481,4.64301 -3.07845,-6 c -1.69315,-3.3 -3.52776,-6.16875 -4.0769,-6.375 -1.89547,-0.7119 -4.81978,-4.20056 -4.26861,-5.09238 0.30403,-0.49193 0.0954,-1.17708 -0.46353,-1.52254 -0.55897,-0.34546 -1.01631,0.0334 -1.01631,0.84201 0,0.80857 -1.4625,2.61869 -3.25,4.0225 -3.87065,3.0398 -5.08706,4.23496 -8.02696,7.88676 -2.29057,2.84523 -2.45828,2.87768 -12.72304,2.4616 -5.22289,-0.21172 -5.51624,-0.36455 -5.82226,-3.03342 -0.37356,-3.25787 1.28358,-5.68953 3.87732,-5.68953 0.99559,0 2.09962,-0.91199 2.4534,-2.02664 0.35377,-1.11465 1.70694,-2.72362 3.00704,-3.57547 1.36026,-0.89128 2.13173,-2.15361 1.81717,-2.97336 -0.858,-2.23591 -2.33141,-1.70563 -5.96459,2.14667 -3.27272,3.47009 -3.36808,3.50171 -3.36808,1.11663 0,-3.24026 -3.85029,-4.45279 -6,-1.88951 -0.825,0.98372 -2.9625,3.55905 -4.75,5.72297 l -3.25,3.9344 0.006,-2.97785 c 0.009,-4.70693 1.9457,-10.47784 3.51667,-10.47784 1.11026,0 1.21663,0.5566 0.47775,2.5 -0.52277,1.375 -0.6889,2.5 -0.36917,2.5 0.31973,0 1.46625,-1.125 2.54783,-2.5 1.08158,-1.375 2.60884,-2.5 3.39392,-2.5 0.78508,0 1.48367,-0.45 1.55242,-1 0.0688,-0.55 0.18125,-1.36384 0.25,-1.80854 0.18542,-1.19933 5.37785,-7.19146 6.2317,-7.19146 0.4047,0 1.55875,-0.74474 2.56456,-1.65499 2.2211,-2.01007 2.29769,-0.92561 0.32874,4.65499 -2.55176,7.23245 -1.67587,7.74786 2.69536,1.58606 2.30745,-3.25264 4.37915,-5.36253 4.60378,-4.68864 0.22463,0.67389 -0.1,5.53597 -0.72134,10.80461 -1.22878,10.419 -0.84969,13.02284 0.89521,6.14891 0.60745,-2.39302 1.98702,-5.98721 3.06572,-7.98709 1.0787,-1.99989 1.96127,-4.36239 1.96127,-5.25 0,-0.88762 0.45,-1.61385 1,-1.61385 0.55,0 1,0.46445 1,1.03212 0,0.56766 0.69597,2.6978 1.54659,4.73363 1.25253,2.99772 1.74235,3.41942 2.57613,2.21788 0.73764,-1.06299 1.16804,-1.14515 1.51802,-0.28981 0.82595,2.01861 3.35926,0.239 3.35926,-2.35983 0,-3.15828 1.57237,-2.20693 2.30597,1.3952 0.69262,3.40097 3.67448,10.6237 4.17803,10.12015 0.20175,-0.20176 -0.30025,-3.89975 -1.11558,-8.21776 -1.59332,-8.43835 -1.20733,-11.46076 0.6044,-4.73252 1.50663,5.59522 2.38318,5.15769 1.8012,-0.89906 -0.26424,-2.75 -0.164,-5 0.22275,-5 0.38676,0 1.94633,2.925 3.46573,6.5 1.5194,3.575 3.21005,6.5 3.75701,6.5 0.54696,0 0.77873,-0.5625 0.51505,-1.25 -0.29794,-0.7768 0.47672,-1.30821 2.0463,-1.40376 1.38915,-0.0846 2.0456,0.14298 1.45878,0.50565 -1.04108,0.64343 3.51923,16.72973 5.70359,20.11915 1.98797,3.0847 2.25973,-0.22269 0.71367,-8.68536 -2.31219,-12.65623 -2.67286,-19.50578 -0.99315,-18.86122 1.43929,0.55231 1.77405,-1.29594 1.39004,-7.67446 -0.12417,-2.0625 0.129,-3.75 0.56261,-3.75 0.43361,0 2.27231,1.43828 4.08599,3.19617 1.81369,1.75789 3.29761,2.74789 3.29761,2.2 0,-0.54789 -0.54,-1.53617 -1.2,-2.19617 -1.92964,-1.92964 0.15628,-1.37955 2.87345,0.75778 2.0166,1.58625 2.84342,1.73638 4.35703,0.79111 1.76637,-1.10311 1.68986,-1.38676 -1.40472,-5.20777 -4.65021,-5.74182 -5.7158,-8.95962 -1.68966,-5.10234 3.70412,3.54878 3.99944,2.47655 0.55991,-2.0329 -3.02836,-3.97039 -1.75614,-5.38069 1.60863,-1.78324 1.31745,1.40855 3.21692,3.00375 4.22105,3.54488 1.63971,0.88364 1.70595,0.76011 0.65024,-1.2125 -0.95843,-1.79085 -0.92625,-2.05303 0.1743,-1.42 3.58403,2.06151 3.81451,2.58915 2.2044,5.0465 -1.40314,2.14147 -1.40783,2.46084 -0.0438,2.98428 0.84015,0.3224 2.68969,-0.1753 4.1101,-1.10598 1.42041,-0.93069 3.48255,-1.4568 4.58255,-1.16915 1.99496,0.5217 1.99493,0.51591 -0.0137,-2.305 -2.07926,-2.92006 -4.827,-5.31972 -12.00666,-10.48567 l -4.16942,-3 3.59315,-0.31037 c 2.74001,-0.23671 3.59273,-0.75667 3.59273,-2.19098 0,-1.03434 -0.49804,-2.18842 -1.10676,-2.56463 -1.46583,-0.90594 0.85569,-2.39806 3.76314,-2.41871 1.6225,-0.0115 2.03446,0.4509 1.66396,1.86772 -0.51519,1.97006 3.26229,5.49295 4.84263,4.51625 1.2283,-0.75913 1.02033,-5.81598 -0.29322,-7.12953 -0.84034,-0.84034 -0.19907,-1.30494 2.5,-1.81129 4.50809,-0.84573 4.70365,-2.21956 0.38025,-2.67141 -2.88254,-0.30125 -2.60185,-0.48562 2.48256,-1.63063 3.15291,-0.71004 5.99197,-1.7107 6.30902,-2.2237 0.31705,-0.513 2.0124,-0.97923 3.76744,-1.03607 3.14209,-0.10177 3.1297,-0.1193 -0.80902,-1.14424 -2.2,-0.57249 -4.2395,-1.40647 -4.53222,-1.85329 -0.29272,-0.44682 -4.73431,-0.136 -9.87019,0.69071 -5.13588,0.82672 -9.50423,1.33687 -9.70743,1.13367 -0.2032,-0.20321 2.55089,-2.23126 6.12019,-4.5068 3.56931,-2.27554 6.48965,-4.663719 6.48965,-5.307069 0,-1.21125 -6.49029,-0.84964 -10.5,0.58501 -1.13963,0.407749 -0.27926,-0.80528 2,-2.81979 l 4,-3.535381 -4,0.879648 c -4.06186,0.893251 -14.35564,4.063263 -18,5.543183 -1.64372,0.667479 -1.80161,0.556129 -0.88631,-0.62507 1.64758,-2.12621 1.3622,-5.141956 -0.4218,-4.457371 -1.19006,0.456669 -1.24124,0.284531 -0.2651,-0.891643 0.66532,-0.801662 1.06647,-2.859886 0.89144,-4.57383 l -0.31823,-3.116262 -3.44428,2.550938 c -3.28737,2.434729 -7.05629,3.396795 -7.05522,1.800938 2.8e-4,-0.4125 0.92381,-3.179259 2.0523,-6.148353 1.12848,-2.969094 1.91312,-6.794094 1.74364,-8.5 l -0.30815,-3.101647 -2.26447,4.25 c -2.6497,4.97301 -4.05876,5.485452 -3.43713,1.25 0.24217,-1.65 0.18485,-3 -0.12738,-3 -0.31223,0 -2.16398,2.090586 -4.11499,4.645747 -2.9731,3.893752 -3.34472,4.905424 -2.29581,6.25 1.10109,1.411457 1.04737,1.444456 -0.44697,0.27458 -1.05292,-0.824294 -1.82241,-3.104757 -2.02456,-6 -0.34773,-4.980203 -0.20151,-5.189848 -2.49673,3.579673 -0.64905,2.47991 -0.76672,2.308035 -1.19807,-1.75 l -0.47833,-4.5 -0.5976,5.5 c -0.59123,5.441299 -1.18184,5.324912 -2.53731,-0.5 -0.62006,-2.66463 -0.78346,-2.77642 -1.46165,-1 -0.71451,1.871557 -0.84498,1.825405 -2.03164,-0.718643 -0.69746,-1.495254 -1.72183,-2.438225 -2.27639,-2.095492 -0.59617,0.368458 -0.69612,0.118069 -0.24453,-0.612617 0.46418,-0.751053 -0.33308,-2.38061 -2.03258,-4.154508 -3.20887,-3.349338 -4.25807,-3.65129 -4.06104,-1.16874 0.0871,1.098039 -0.51307,1.698257 -1.61111,1.611111 -1.97491,-0.156739 -2.20084,1.322888 -0.77475,5.073789 1.49275,3.926224 -0.36026,3.048584 -2.50174,-1.1849 l -1.89692,-3.75 -0.35472,2.75 c -0.19509,1.5125 -0.73031,2.75 -1.18937,2.75 -0.45906,0 -3.82488,-3.2625 -7.4796,-7.25 l -6.64496,-7.25 4.53107,9.200229 c 2.63522,5.350747 4.11815,9.455426 3.5442,9.810147 -0.54278,0.335454 -3.58242,-0.992149 -6.75476,-2.950229 -3.17234,-1.958081 -6.11235,-3.560147 -6.53335,-3.560147 -1.27443,0 1.3218,4.259005 5.17313,8.486312 1.99747,2.192471 2.50677,3.046916 1.13177,1.898766 -4.38671,-3.662985 -5.29864,-3.918102 -4.50503,-1.260307 0.39009,1.306376 1.30261,3.610338 2.02784,5.119915 1.78925,3.724357 -0.0797,4.696514 -7.7003,4.005504 -3.20238,-0.290382 -5.82251,-0.21751 -5.82251,0.16195 0,0.37945 1.6875,1.45395 3.75,2.38777 l 3.75,1.697849 -7.5,0.50112 -7.5,0.50112 3.82542,1.56912 3.82542,1.56911 -4.07542,1.22103 c -4.01153,1.20188 -5.56497,3.14074 -2.5164,3.14074 2.15608,0 0.89004,1.71642 -2.59557,3.5189 -2.64247,1.36648 -2.85289,1.35655 -2.29087,-0.10803 0.34245,-0.89241 -0.005,-2.00744 -0.77686,-2.49648 -2.14624,-1.35899 -2.72944,-1.10578 -3.07617,1.33561 -0.27351,1.92585 -1.25598,2.41453 -6.81955,3.39206 -3.575,0.62814 -8.75,1.19753 -11.5,1.26532 -2.75,0.0678 -5.675,0.55946 -6.5,1.09262 -1.93253,1.24889 -2.52409,1.20394 18.50534,1.4063 9.90294,0.0953 18.56544,0.51941 19.25,0.94249 0.68456,0.42309 1.24466,1.64269 1.24466,2.71023 0,1.44451 -0.70341,1.94758 -2.75,1.9668 -2.46718,0.0232 -7.51768,1.62513 -19.75,6.26453 -2.2,0.8344 -4.1247,2.12746 -4.27712,2.87346 -0.15242,0.746 -1.60982,2.25182 -3.23867,3.34628 -3.50703,2.35644 -4.88187,4.90959 -2.18237,4.0528 0.98409,-0.31234 4.35577,-0.78628 7.49262,-1.05321 6.421,-0.54638 23.59176,-3.96311 30.58799,-6.08655 7.13578,-2.16579 7.17453,-1.67781 0.16661,2.09818 -9.57076,5.15689 -16.3471,12.47869 -11.54906,12.47869 2.08598,0 1.91964,0.42651 -1.5,3.84615 -2.7297,2.72971 -4.11012,7.15385 -2.23213,7.15385 0.42232,0 2.52087,-1.1912 4.66344,-2.64711 2.17669,-1.47911 3.64517,-2.03065 3.32806,-1.25 -0.31212,0.76841 -0.91694,2.27094 -1.34404,3.33894 -0.97369,2.43486 6.26736,-2.54992 14.29976,-9.84403 3.41998,-3.10564 6.44076,-4.9842 8.24268,-5.12594 l 2.8443,-0.22375 -5.31964,8.12594 c -4.04617,6.18068 -5.79213,8.05542 -7.29336,7.83133 -1.18972,-0.17759 -2.8062,0.76372 -4.0695,2.36974 -1.3614,1.73074 -2.74832,2.49372 -3.95797,2.17739 -1.02419,-0.26783 -2.94205,0.34328 -4.26189,1.35802 -1.31984,1.01475 -2.82071,1.855 -3.33526,1.86723 -0.51455,0.0122 -2.04372,1.03474 -3.39815,2.27224 -2.32286,2.12232 -2.43226,2.1365 -1.92791,0.25 0.29409,-1.1 0.88018,-2.9 1.30243,-4 0.60354,-1.57228 0.0602,-1.35842 -2.54082,1 -2.59206,2.35033 -3.13973,2.56689 -2.52899,1 0.42876,-1.1 1.15148,-3.8 1.60606,-6 0.70565,-3.41508 0.52388,-4.25673 -1.24304,-5.75565 -1.66477,-1.41226 -1.83326,-2.04035 -0.86148,-3.21127 0.66443,-0.8006 2.04624,-1.72166 3.07068,-2.0468 1.50737,-0.47842 4.95677,-5.49714 4.95677,-7.21187 0,-0.23008 -2.4784,-0.10867 -5.50756,0.2698 -3.34744,0.41824 -5.99486,0.28512 -6.75,-0.3394 -0.85631,-0.70818 -3.26256,-0.6214 -7.74244,0.27923 -3.575,0.71871 -10.55,2.07687 -15.5,3.01813 -4.95,0.94126 -9.7875,2.12917 -10.75,2.63979 -0.9625,0.51062 -1.75,0.55765 -1.75,0.10451 0,-0.77341 4.04433,-3.33319 15.25,-9.6522 3.50113,-1.97432 4.75,-3.27985 4.75,-4.96549 0,-1.76988 1.14738,-2.82431 5.07513,-4.66397 8.99659,-4.21378 8.62477,-8.91771 -0.69233,-8.75877 -2.68554,0.0458 -10.7328,-0.34341 -17.8828,-0.86493 -10.44665,-0.76198 -12.21435,-1.0942 -9,-1.69144 15.46917,-2.87429 31.5474,-5.65309 34.5,-5.96265 2.52093,-0.2643 1.96146,-0.43138 -2,-0.59727 -4.08918,-0.17124 -4.98697,-0.45078 -3.5,-1.08975 1.1,-0.47269 3.26964,-0.89106 4.82143,-0.92971 1.55178,-0.0387 3.48313,-0.73199 4.29187,-1.54073 1.29392,-1.29392 1.19531,-1.52493 -0.82143,-1.92437 -11.08127,-2.19475 -11.12072,-2.27429 -0.88773,-1.78989 7.71086,0.36502 10.21952,0.19381 9.69098,-0.66139 -0.39223,-0.63465 -1.37913,-1.15391 -2.19309,-1.15391 -1.1363,0 -1.0065,-0.50818 0.55901,-2.18856 2.5678,-2.756209 2.551,-3.339379 -0.15071,-5.231734 -2.70556,-1.895052 -1.77742,-3.167642 1.16268,-1.594152 2.32166,1.242518 7.58596,0.504709 9.68564,-1.357475 3.66689,-3.252138 4.25949,-3.569545 4.85758,-2.60181 0.90238,1.460068 2.48377,0.169959 2.48377,-2.026268 0,-2.485076 -1.52327,-3.325507 -3.80963,-2.101883 -1.31109,0.701674 -2.66,0.570874 -4.62475,-0.448449 -1.52557,-0.79148 -3.19665,-1.177702 -3.7135,-0.858271 -1.13987,0.704476 -3.85811,-1.3953 -3.83681,-2.963842 0.0339,-2.496985 2.0085,-3.982372 5.64892,-4.249412 7.98758,-0.585924 10.94367,-1.136846 14.46186,-2.695246 4.802,-2.127065 5.46151,-5.471937 2.26447,-11.484751 -4.65129,-8.747877 -3.51124,-8.461469 8.16743,2.051854 2.29112,2.0625 4.90582,3.75 5.81045,3.75 0.90463,0 2.65255,1.159027 3.88426,2.575615 l 2.23946,2.575615 0.57037,-2.325615 c 0.37712,-1.537645 1.17439,-2.218342 2.35307,-2.009009 1.56179,0.277372 1.70281,-0.218304 1.13798,-4 -0.6076,-4.068112 -0.55343,-4.201472 0.9411,-2.316606 3.80382,4.797324 11.80147,12.5 12.97867,12.5 0.28966,0 0.52665,-1.335877 0.52665,-2.968615 0,-2.156834 0.38921,-2.819262 1.42331,-2.422441 1.61637,0.620261 3.57669,-2.417864 3.57669,-5.543203 0,-3.957159 1.80875,-2.02933 2.98757,3.184259 1.7876,7.906016 2.07523,8.75 2.98199,8.75 0.45914,0 1.3054,-1.35 1.8806,-3 0.57519,-1.65 1.70671,-3 2.51449,-3 0.80777,0 1.70291,-0.5625 1.9892,-1.25 0.37876,-0.909596 0.90804,-0.773434 1.94357,0.5 1.94686,2.394133 2.32589,2.240721 3.70596,-1.5 l 1.19903,-3.25 0.92782,2.58706 c 0.85755,2.391146 1.25023,2.53813 5.18536,1.940927 2.34165,-0.355374 4.76582,-0.96027 5.38706,-1.344214 1.76642,-1.091705 6.43442,1.124372 7.01075,3.328267 0.65821,2.517008 1.47713,2.51378 3.05453,-0.01204 1.59753,-2.558064 4.15363,-2.530016 9.20128,0.100967 3.95058,2.059158 4.03079,2.208407 4.03079,7.5 0,4.122472 -0.48829,5.887322 -2.06515,7.46418 -1.55771,1.557714 -1.90676,2.786276 -1.42054,5 0.5995,2.729503 0.96758,2.934853 5.26056,2.934853 h 4.61596 l -3.69541,3.38487 c -5.19985,4.762879 -4.83655,5.766719 1.80458,4.986179 3.82253,-0.44926 5.5,-0.29943 5.5,0.49127 0,0.62572 0.675,1.13768 1.5,1.13768 0.825,0 1.5,0.42961 1.5,0.95469 0,0.52507 1.6875,1.226 3.75,1.55761 10.92826,1.75706 10.53133,2.77932 -2.01857,5.19868 -7.99859,1.54197 -10.56831,3.14963 -5.42241,3.39237 1.4103,0.0665 0.85479,0.45824 -1.55902,1.09934 -4.01143,1.06542 -4.84705,2.36397 -2,3.10798 0.9625,0.25153 0.33152,0.50953 -1.40217,0.57333 -2.56779,0.0945 -3.3491,0.68088 -4.21435,3.16294 -0.58419,1.67582 -1.96625,4.1963 -3.07124,5.60107 -1.79333,2.27984 -1.86153,2.83858 -0.63509,5.20305 0.75569,1.45692 5.1811,6.47394 9.83423,11.14894 4.65314,4.675 9.01778,9.5668 9.69921,10.87068 1.40948,2.69698 1.29869,2.6569 -5.64077,-2.04086 -2.29909,-1.5564 -4.44553,-2.82982 -4.76987,-2.82982 -0.32433,0 -2.42096,-1.15603 -4.65917,-2.56894 -3.85153,-2.43137 -4.13934,-2.4734 -5.37415,-0.78469 -0.71757,0.98134 -1.49541,4.04987 -1.72853,6.81894 -0.83458,9.91357 -5.66125,14.75673 -14.88755,14.93843 -3.91595,0.0771 -4.88945,0.43829 -4.89439,1.81584 -0.003,0.94577 -0.93629,3.3756 -2.07311,5.39961 -1.60501,2.8576 -1.78295,3.85554 -0.79621,4.46538 0.9997,0.61785 1.01656,1.27912 0.079,3.10039 -0.65543,1.27327 -1.30964,5.69004 -1.45379,9.81504 l -0.26205,7.5 z m 18.04967,-29.31321 c 1.54788,0.96667 2.55135,1.02505 3.84169,0.22349 2.46886,-1.53365 4.48587,-6.07102 3.74143,-8.41655 -0.71008,-2.23728 -4.39339,-2.68541 -6.31097,-0.76783 -0.66884,0.66884 -3.12134,2.13134 -5.45,3.25 -4.86601,2.33757 -5.8259,4.71929 -2.52434,6.2635 1.77775,0.83149 2.54969,0.7431 3.44873,-0.39489 0.9702,-1.22806 1.49856,-1.25367 3.25346,-0.15772 z m 1.78492,-78.358971 c 1.35325,-1.527419 1.12024,-1.870745 -2.53539,-3.73571 -2.21408,-1.129539 -4.30769,-2.510139 -4.65247,-3.067998 -1.67647,-2.712596 -7.87824,-0.448336 -11.34753,4.142975 -1.13809,1.506165 -0.63688,1.642927 5.49727,1.5 6.52477,-0.152028 6.81766,-0.05336 8.79548,2.96277 1.52376,2.323713 2.13611,2.706556 2.39919,1.5 0.19428,-0.891019 1.02383,-2.376936 1.84345,-3.302037 z M 598.76795,198.66038 c -0.4125,-0.41943 -0.72148,-2.6001 -0.68661,-4.84594 0.0575,-3.70218 0.1551,-3.85357 1.04601,-1.62183 1.09155,2.73434 0.81759,7.66454 -0.3594,6.46777 z m 57.10716,-15.67927 c -1.617,-2.30592 -1.76616,-2.83816 -0.51349,-1.83224 1.78215,1.4311 4.12389,5.08224 3.25961,5.08224 -0.2569,0 -1.49265,-1.4625 -2.74612,-3.25 z M 525.6239,181.07905 c 1.04173,-1.45863 2.09405,-2.45863 2.33849,-2.22222 0.24445,0.23641 -0.60787,1.42984 -1.89404,2.65206 l -2.3385,2.22222 z m 161.09152,-15.59794 c -1.99352,-1.5125 -3.64098,-3.12531 -3.66103,-3.58403 -0.02,-0.45872 1.76356,0.5916 3.96356,2.33403 3.59948,2.85084 4.65126,4 3.66103,4 -0.18644,0 -1.97004,-1.2375 -3.96356,-2.75 z M 550.75768,145.34386 c -0.45438,-1.73758 -0.0227,-2.43485 1.97822,-3.19562 3.44525,-1.30988 3.6058,-0.85599 0.89826,2.53958 -2.26244,2.83738 -2.30359,2.84676 -2.87648,0.65604 z M 526.01795,134.8381 c 0,-0.21616 0.69837,-0.661 1.55194,-0.98855 0.88992,-0.34149 1.29132,-0.17385 0.94098,0.39301 -0.58726,0.95021 -2.49292,1.40545 -2.49292,0.59554 z m 151,-13.10699 c 0,-1.56901 3.46212,-2.02737 6.50206,-0.86084 1.32869,0.50987 1.39581,0.81021 0.33179,1.48469 -2.28111,1.44599 -6.83385,1.03038 -6.83385,-0.62385 z m 22,-11.89301 c 0,-0.21616 0.675,-0.65203 1.5,-0.96862 0.825,-0.31658 1.5,-0.13972 1.5,0.39301 0,0.53274 -0.675,0.96862 -1.5,0.96862 -0.825,0 -1.5,-0.17686 -1.5,-0.39301 z M 526.86342,85.331626 c -1.84001,-1.673038 -2.80806,-3.055079 -2.15123,-3.071202 1.66138,-0.04078 6.9527,4.65321 6.15123,5.456817 -0.36,0.36095 -2.16,-0.712576 -4,-2.385615 z m 154.15453,2.441639 c 0,-0.838161 9.08143,-5.794057 9.62368,-5.25181 0.29333,0.293334 -1.45403,1.698006 -3.88303,3.121495 -4.31324,2.527728 -5.74065,3.057429 -5.74065,2.130315 z m -87.4159,-6.183598 c -0.52667,-1.372472 -0.38034,-1.434339 0.89301,-0.377555 1.73524,1.440126 1.91584,2.018999 0.62988,2.018999 -0.49116,0 -1.17646,-0.73865 -1.52289,-1.641444 z m 103.4159,-5.671773 c 0,-0.247173 1.65202,-1.70946 3.67115,-3.249527 2.01913,-1.540067 3.35552,-2.289429 2.96976,-1.665249 -0.79122,1.28022 -6.64091,5.609434 -6.64091,4.914776 z M 548.6009,67.365326 c -0.43077,-0.697003 -0.51316,-1.537338 -0.18309,-1.867413 0.89497,-0.894961 1.87077,0.421303 1.38739,1.871444 -0.33872,1.016175 -0.57427,1.015386 -1.2043,-0.004 z m 98.43929,-4.26177 c -0.0221,-1.613708 2.65072,-4.532823 3.43353,-3.750005 0.2241,0.224092 -0.45177,1.525718 -1.50193,2.8925 -1.42333,1.852479 -1.91503,2.07076 -1.9316,0.857505 z M 623.0969,58.647778 c 0.048,-1.164943 0.28494,-1.4019 0.60416,-0.604167 0.28887,0.721875 0.25335,1.584375 -0.0789,1.916667 -0.33229,0.332291 -0.56864,-0.258334 -0.52522,-1.3125 z m 6.55942,-0.916667 c 0.31659,-0.825 0.75246,-1.5 0.96862,-1.5 0.21615,0 0.39301,0.675 0.39301,1.5 0,0.825 -0.43588,1.5 -0.96862,1.5 -0.53273,0 -0.70959,-0.675 -0.39301,-1.5 z"
       id="path6" />
  </g>
</svg>
